<?xml version="1.0" standalone="no"?>
<!DOCTYPE svg PUBLIC "-//W3C//DTD SVG 20010904//EN"
 "http://www.w3.org/TR/2001/REC-SVG-20010904/DTD/svg10.dtd">
<svg version="1.0" xmlns="http://www.w3.org/2000/svg"
 width="2400.000000pt" height="2090.000000pt" viewBox="0 0 2400.000000 2090.000000"
 preserveAspectRatio="xMidYMid meet">
<metadata>
Created by potrace 1.16, written by Peter Selinger 2001-2019
</metadata>
<g transform="translate(0.000000,2090.000000) scale(0.100000,-0.100000)"
fill="#000000" stroke="none">
<path d="M11605 5961 c-88 -32 -198 -83 -252 -117 -46 -29 -53 -38 -53 -66 0
-18 9 -46 20 -63 31 -46 26 -76 -20 -120 -24 -24 -45 -55 -51 -79 -16 -61 -2
-149 37 -224 39 -75 78 -119 214 -242 104 -95 172 -176 209 -248 12 -24 35
-98 51 -165 15 -67 35 -140 43 -162 37 -102 140 -240 268 -358 138 -129 247
-178 431 -195 54 -5 105 -15 113 -22 18 -15 19 -49 4 -101 -17 -55 0 -87 85
-162 90 -80 115 -98 441 -314 149 -99 290 -197 314 -217 57 -48 109 -114 117
-148 3 -16 11 -28 18 -28 6 0 83 24 171 53 l160 54 6 139 c5 103 16 183 43
309 42 199 45 251 15 289 -11 15 -64 65 -117 111 -54 47 -133 117 -178 157
-45 40 -157 126 -250 190 -93 65 -238 174 -322 242 -85 69 -231 177 -325 240
-95 63 -212 152 -262 197 -49 45 -140 122 -202 171 -135 107 -198 176 -242
263 -58 117 -58 197 -1 299 33 59 38 100 14 134 -24 34 -47 14 -99 -87 -77
-149 -133 -194 -187 -151 -34 26 -88 134 -88 174 0 17 14 78 32 135 31 100 32
104 13 117 -26 19 -109 16 -170 -5z"/>
</g>
</svg>
