<?xml version="1.0" standalone="no"?>
<!DOCTYPE svg PUBLIC "-//W3C//DTD SVG 20010904//EN"
 "http://www.w3.org/TR/2001/REC-SVG-20010904/DTD/svg10.dtd">
<svg version="1.0" xmlns="http://www.w3.org/2000/svg"
 width="2400.000000pt" height="2090.000000pt" viewBox="0 0 2400.000000 2090.000000"
 preserveAspectRatio="xMidYMid meet">
<metadata>
Created by potrace 1.16, written by Peter Selinger 2001-2019
</metadata>
<g transform="translate(0.000000,2090.000000) scale(0.100000,-0.100000)"
fill="#000000" stroke="none">
<path d="M16145 3363 c-55 -8 -120 -16 -144 -19 -30 -4 -51 -14 -70 -34 -35
-37 -62 -50 -105 -50 -20 0 -36 -4 -36 -9 0 -15 42 -65 139 -163 53 -54 93
-98 90 -98 -3 0 -53 18 -112 40 -102 38 -147 48 -147 33 0 -5 27 -39 60 -78
62 -70 80 -109 63 -126 -17 -17 -60 1 -144 62 -71 51 -109 70 -109 55 0 -3 18
-26 40 -51 44 -50 48 -63 25 -71 -33 -13 -153 56 -237 134 -58 54 -68 74 -58
119 11 45 -8 60 -49 39 -42 -22 -61 -54 -61 -102 0 -84 42 -161 171 -314 84
-100 149 -196 149 -220 0 -38 -26 -44 -89 -21 -75 27 -102 27 -130 -3 l-22
-23 25 -38 c39 -57 38 -87 -4 -128 -17 -16 -27 -33 -24 -42 4 -8 32 -31 64
-50 74 -45 250 -127 263 -122 6 2 -37 42 -95 90 -58 48 -109 94 -112 103 -14
35 -6 52 29 64 46 15 90 1 147 -49 52 -46 89 -66 173 -92 84 -26 115 -61 115
-130 0 -70 -14 -93 -51 -85 -28 5 -40 -6 -18 -19 7 -5 8 -29 4 -69 -4 -42 -2
-76 9 -111 9 -27 16 -65 16 -82 0 -27 -4 -33 -22 -33 -11 0 -37 12 -57 28 -88
67 -105 75 -154 74 -64 -1 -82 -8 -102 -38 -20 -31 -16 -37 50 -80 64 -40 68
-47 67 -93 -3 -71 -73 -91 -162 -46 -56 28 -111 32 -134 10 -14 -14 -11 -26
34 -114 69 -137 122 -298 119 -364 -2 -46 9 -79 95 -283 l98 -231 36 39 c52
55 93 59 194 19 42 -16 115 -38 161 -48 75 -15 97 -16 184 -5 140 17 170 16
305 -19 131 -33 163 -46 192 -78 25 -28 31 -27 97 14 57 35 85 37 91 8 3 -17
241 127 343 208 183 145 316 343 348 516 6 31 5 32 -31 35 -52 4 -53 31 -1 93
62 75 83 125 60 139 -10 6 -115 -13 -216 -40 -33 -8 -80 -14 -105 -12 -40 3
-45 6 -48 29 -2 16 7 42 22 64 25 36 25 38 8 67 -15 25 -21 29 -47 23 -62 -12
-69 -10 -91 22 -29 43 -38 113 -23 172 11 44 10 51 -10 87 -27 48 -66 74 -154
103 -113 38 -119 64 -31 131 l53 40 -14 47 c-22 70 -19 113 10 155 14 20 25
43 25 51 0 7 -23 55 -51 105 -42 75 -53 105 -59 160 -4 38 -13 78 -19 91 -14
25 -34 22 -92 -14 -48 -31 -132 -60 -152 -52 -8 3 -26 27 -40 54 -13 26 -40
79 -60 116 -27 49 -37 81 -37 112 0 68 31 98 258 246 30 20 59 45 65 54 10 19
-7 19 -155 -1 -44 -6 -48 -5 -80 30 -40 44 -93 60 -247 76 -126 12 -159 12
-286 -7z"/>
</g>
</svg>
