<?xml version="1.0" standalone="no"?>
<!DOCTYPE svg PUBLIC "-//W3C//DTD SVG 20010904//EN"
 "http://www.w3.org/TR/2001/REC-SVG-20010904/DTD/svg10.dtd">
<svg version="1.0" xmlns="http://www.w3.org/2000/svg"
 width="2400.000000pt" height="2090.000000pt" viewBox="0 0 2400.000000 2090.000000"
 preserveAspectRatio="xMidYMid meet">
<metadata>
Created by potrace 1.16, written by Peter Selinger 2001-2019
</metadata>
<g transform="translate(0.000000,2090.000000) scale(0.100000,-0.100000)"
fill="#000000" stroke="none">
<path d="M20105 4550 c-38 -40 -96 -58 -245 -75 -168 -20 -236 -32 -355 -62
-245 -63 -342 -136 -709 -531 -21 -23 -45 -42 -54 -42 -12 0 -14 -16 -10 -107
5 -112 7 -118 81 -289 53 -122 88 -271 94 -397 6 -123 -3 -184 -54 -340 -19
-60 -32 -111 -29 -114 9 -10 125 36 226 88 52 28 172 103 267 167 229 155 262
172 334 172 32 0 127 -16 211 -36 84 -19 180 -38 214 -41 119 -11 275 34 403
117 33 21 149 125 257 231 229 222 350 310 487 355 79 26 93 27 367 33 283 6
285 6 340 33 30 14 80 51 111 81 50 50 56 61 67 120 17 89 15 182 -5 393 l-17
181 -101 -24 c-55 -13 -167 -46 -250 -73 -217 -71 -298 -84 -500 -85 l-170 0
-115 47 c-63 26 -123 50 -132 53 -14 6 -18 2 -18 -18 0 -58 -43 -47 -156 39
l-86 66 -60 -47 c-108 -84 -135 -82 -208 16 -57 77 -104 119 -133 119 -13 0
-36 -13 -52 -30z"/>
</g>
</svg>
