<?xml version="1.0" standalone="no"?>
<!DOCTYPE svg PUBLIC "-//W3C//DTD SVG 20010904//EN"
 "http://www.w3.org/TR/2001/REC-SVG-20010904/DTD/svg10.dtd">
<svg version="1.0" xmlns="http://www.w3.org/2000/svg"
 width="2400.000000pt" height="2090.000000pt" viewBox="0 0 2400.000000 2090.000000"
 preserveAspectRatio="xMidYMid meet">
<metadata>
Created by potrace 1.16, written by Peter Selinger 2001-2019
</metadata>
<g transform="translate(0.000000,2090.000000) scale(0.100000,-0.100000)"
fill="#000000" stroke="none">
<path d="M11821 4166 c-39 -45 -79 -103 -90 -127 -25 -56 -14 -87 60 -156 64
-60 202 -172 244 -198 112 -71 364 -319 404 -400 13 -26 27 -78 31 -116 12
-105 25 -121 189 -217 110 -64 146 -81 152 -70 45 77 168 244 182 246 12 2 36
-14 65 -45 55 -56 255 -198 303 -215 19 -6 54 -24 78 -40 55 -34 65 -35 96 -3
19 18 25 35 25 66 0 104 -63 165 -415 397 -384 254 -496 341 -542 420 -25 42
-25 44 -10 102 12 50 12 61 1 71 -7 6 -58 15 -111 19 -54 4 -118 13 -143 20
-111 30 -236 115 -353 241 -46 49 -86 89 -89 89 -3 0 -38 -38 -77 -84z"/>
</g>
</svg>
