<?xml version="1.0" standalone="no"?>
<!DOCTYPE svg PUBLIC "-//W3C//DTD SVG 20010904//EN"
 "http://www.w3.org/TR/2001/REC-SVG-20010904/DTD/svg10.dtd">
<svg version="1.0" xmlns="http://www.w3.org/2000/svg"
 width="2400.000000pt" height="2090.000000pt" viewBox="0 0 2400.000000 2090.000000"
 preserveAspectRatio="xMidYMid meet">
<metadata>
Created by potrace 1.16, written by Peter Selinger 2001-2019
</metadata>
<g transform="translate(0.000000,2090.000000) scale(0.100000,-0.100000)"
fill="#000000" stroke="none">
<path d="M13221 12473 c-15 -62 -27 -155 -33 -253 -15 -268 -47 -403 -126
-539 -74 -130 -97 -141 -302 -144 -128 -2 -150 -5 -186 -24 -57 -31 -100 -82
-145 -178 -45 -94 -67 -118 -128 -140 -48 -17 -166 -20 -205 -6 -23 9 -30 3
-121 -119 -53 -71 -115 -145 -137 -166 -82 -74 -260 -133 -363 -119 -89 11
-120 37 -210 175 -82 126 -120 171 -175 210 l-29 21 -6 -23 c-10 -39 21 -161
54 -214 16 -27 73 -91 125 -141 89 -86 96 -96 96 -132 0 -31 -9 -51 -46 -97
l-45 -59 53 -3 c96 -6 158 7 187 38 32 35 56 45 180 71 53 11 139 39 191 61
166 71 232 83 289 53 50 -26 55 -68 11 -110 -16 -16 -30 -35 -30 -42 0 -18 46
-61 91 -83 48 -25 188 -60 237 -60 134 0 433 94 748 235 82 37 174 76 204 87
75 26 183 33 263 18 76 -14 99 -32 74 -57 -12 -12 -13 -22 -6 -42 15 -38 78
-99 111 -106 58 -13 244 73 306 142 20 23 41 63 53 106 36 118 88 155 198 143
68 -8 80 2 113 85 26 67 36 254 18 344 -6 33 -14 130 -17 215 -7 185 4 239 91
457 31 77 56 143 56 146 0 4 -51 7 -114 7 -184 0 -273 20 -586 134 -157 57
-365 119 -587 175 -67 17 -123 31 -125 31 -2 0 -14 -44 -27 -97z"/>
</g>
</svg>
