<?xml version="1.0" standalone="no"?>
<!DOCTYPE svg PUBLIC "-//W3C//DTD SVG 20010904//EN"
 "http://www.w3.org/TR/2001/REC-SVG-20010904/DTD/svg10.dtd">
<svg version="1.0" xmlns="http://www.w3.org/2000/svg"
 width="2400.000000pt" height="2090.000000pt" viewBox="0 0 2400.000000 2090.000000"
 preserveAspectRatio="xMidYMid meet">
<metadata>
Created by potrace 1.16, written by Peter Selinger 2001-2019
</metadata>
<g transform="translate(0.000000,2090.000000) scale(0.100000,-0.100000)"
fill="#000000" stroke="none">
<path d="M15026 20488 c-26 -448 -32 -786 -16 -925 l13 -114 43 7 c85 12 108
-51 79 -216 -27 -155 -30 -184 -15 -175 18 11 64 117 95 220 37 121 73 195
102 208 51 23 66 -32 48 -181 -11 -93 11 -137 34 -69 7 17 18 77 27 132 17
113 37 163 75 184 24 13 32 13 73 -3 67 -26 76 -49 60 -156 -17 -111 -17 -155
0 -169 11 -9 18 -6 34 16 10 15 25 45 31 65 27 84 77 112 172 97 67 -10 211
-80 239 -116 72 -92 4 -170 -187 -214 -51 -12 -93 -25 -93 -28 0 -4 17 -17 38
-28 20 -12 53 -38 71 -57 20 -21 45 -36 58 -36 12 0 59 14 105 30 45 17 99 30
121 30 45 0 77 15 77 35 0 32 51 50 137 49 102 0 136 -19 141 -78 3 -29 -2
-42 -27 -66 -16 -17 -37 -30 -45 -30 -31 0 -15 -18 37 -40 50 -22 59 -22 197
-14 80 4 204 8 275 8 151 1 152 1 420 -111 99 -41 243 -95 320 -119 346 -110
397 -128 473 -165 88 -44 148 -99 213 -194 22 -33 58 -76 80 -95 l40 -35 0
-80 c1 -93 -13 -155 -52 -242 -63 -142 -219 -321 -318 -366 -127 -58 -876 -8
-1025 69 -44 22 -60 24 -145 22 -107 -2 -147 12 -219 76 -47 42 -79 59 -98 52
-12 -5 -11 -13 7 -48 33 -65 116 -145 190 -184 37 -20 94 -59 126 -88 84 -75
111 -92 188 -116 138 -44 163 -86 174 -291 l6 -126 77 -106 c43 -58 95 -142
117 -185 53 -106 85 -132 197 -161 49 -13 166 -55 260 -92 93 -38 182 -69 196
-69 17 0 32 9 43 27 10 14 29 36 43 48 33 28 26 55 -32 121 -57 64 -103 88
-156 79 -75 -13 -167 52 -222 157 -31 59 -32 168 -2 218 44 76 98 73 229 -12
123 -80 131 -81 425 -79 211 1 278 -2 390 -19 202 -30 237 -27 191 19 -13 13
-40 22 -78 25 -226 24 -266 40 -335 134 -50 69 -95 111 -169 162 -157 108
-157 170 -2 360 99 122 146 195 178 281 21 55 35 75 64 94 59 39 143 56 265
54 l109 -3 15 40 c23 63 27 211 9 275 -24 83 -55 122 -107 138 -25 7 -52 17
-60 21 -31 14 -58 71 -69 143 -25 161 -51 281 -75 332 -31 69 -93 150 -150
198 -57 47 -62 80 -15 96 61 21 332 6 437 -24 118 -35 213 -177 171 -258 -7
-12 -35 -45 -63 -73 -94 -93 -106 -178 -32 -223 40 -25 176 -80 240 -97 100
-26 235 29 294 120 25 39 27 49 30 191 3 173 20 253 82 401 70 170 185 360
273 452 36 38 49 39 88 11 l29 -20 -6 123 c-5 107 -3 128 13 158 32 62 111 72
160 19 64 -67 83 -202 45 -311 -12 -31 -26 -101 -32 -154 -25 -212 18 -378
143 -546 46 -62 60 -62 29 -1 -32 62 -80 214 -87 273 -5 41 -1 79 15 145 12
50 34 152 50 227 33 156 39 172 78 190 24 12 28 21 39 91 20 133 96 226 217
267 91 30 131 79 182 223 37 106 61 141 101 145 28 3 37 -4 83 -60 66 -79 99
-107 128 -108 27 0 29 21 7 73 -19 45 -19 113 -1 164 8 22 12 52 9 66 -7 35
-64 99 -151 170 l-69 57 -3099 0 -3100 0 -18 -312z"/>
</g>
</svg>
