<?xml version="1.0" standalone="no"?>
<!DOCTYPE svg PUBLIC "-//W3C//DTD SVG 20010904//EN"
 "http://www.w3.org/TR/2001/REC-SVG-20010904/DTD/svg10.dtd">
<svg version="1.0" xmlns="http://www.w3.org/2000/svg"
 width="2400.000000pt" height="2090.000000pt" viewBox="0 0 2400.000000 2090.000000"
 preserveAspectRatio="xMidYMid meet">
<metadata>
Created by potrace 1.16, written by Peter Selinger 2001-2019
</metadata>
<g transform="translate(0.000000,2090.000000) scale(0.100000,-0.100000)"
fill="#000000" stroke="none">
<path d="M8599 9566 c-6 -6 -196 -44 -284 -56 -151 -21 -244 -55 -281 -101
-13 -16 -85 -181 -81 -185 1 -1 93 -54 203 -117 211 -119 335 -199 494 -317
100 -74 438 -249 558 -289 84 -28 148 -37 166 -22 52 43 -6 274 -122 491 l-56
105 -4 105 c-2 58 -9 111 -15 118 -19 23 -79 49 -172 72 -88 23 -203 75 -253
115 -14 11 -42 35 -63 53 -31 27 -76 41 -90 28z"/>
</g>
</svg>
