<?xml version="1.0" standalone="no"?>
<!DOCTYPE svg PUBLIC "-//W3C//DTD SVG 20010904//EN"
 "http://www.w3.org/TR/2001/REC-SVG-20010904/DTD/svg10.dtd">
<svg version="1.0" xmlns="http://www.w3.org/2000/svg"
 width="2400.000000pt" height="2090.000000pt" viewBox="0 0 2400.000000 2090.000000"
 preserveAspectRatio="xMidYMid meet">
<metadata>
Created by potrace 1.16, written by Peter Selinger 2001-2019
</metadata>
<g transform="translate(0.000000,2090.000000) scale(0.100000,-0.100000)"
fill="#000000" stroke="none">
<path d="M12014 10725 c-28 -8 -77 -26 -110 -40 -91 -41 -160 -64 -264 -86
-76 -17 -101 -27 -127 -51 -17 -17 -29 -36 -26 -43 7 -19 -22 -209 -72 -465
-70 -361 -78 -434 -72 -648 4 -167 16 -253 36 -274 3 -4 38 4 76 18 183 68
344 107 691 169 205 36 268 62 360 148 l76 71 -4 95 c-4 82 -9 105 -35 156
-64 126 -93 269 -109 538 l-7 117 -30 0 c-37 0 -159 36 -208 61 -50 25 -99 76
-99 103 0 12 14 35 30 51 40 38 39 62 -5 81 -40 16 -36 16 -101 -1z"/>
</g>
</svg>
