<?xml version="1.0" standalone="no"?>
<!DOCTYPE svg PUBLIC "-//W3C//DTD SVG 20010904//EN"
 "http://www.w3.org/TR/2001/REC-SVG-20010904/DTD/svg10.dtd">
<svg version="1.0" xmlns="http://www.w3.org/2000/svg"
 width="2400.000000pt" height="2090.000000pt" viewBox="0 0 2400.000000 2090.000000"
 preserveAspectRatio="xMidYMid meet">
<metadata>
Created by potrace 1.16, written by Peter Selinger 2001-2019
</metadata>
<g transform="translate(0.000000,2090.000000) scale(0.100000,-0.100000)"
fill="#000000" stroke="none">
<path d="M21005 7652 c-27 -15 -81 -50 -120 -78 -105 -76 -180 -119 -322 -183
-190 -86 -351 -169 -415 -212 -31 -21 -110 -86 -175 -145 -159 -143 -318 -247
-462 -304 -63 -25 -116 -51 -118 -57 -2 -6 22 -21 54 -33 81 -30 129 -59 217
-134 134 -114 259 -175 316 -154 13 5 47 31 75 58 66 62 120 80 178 59 60 -21
81 -56 85 -142 4 -67 2 -74 -22 -97 -25 -22 -36 -24 -150 -28 l-123 -4 -18
-31 c-29 -49 -93 -114 -123 -125 -15 -6 -46 -16 -69 -22 -36 -9 -54 -24 -111
-93 -105 -125 -168 -185 -206 -195 -74 -21 -179 26 -218 98 -17 30 -19 48 -14
129 3 55 1 101 -4 112 -15 28 -55 45 -171 74 -56 14 -113 32 -126 40 -31 20
-30 62 2 126 34 67 95 124 176 164 80 41 100 74 75 124 -21 40 -44 40 -167 2
-191 -58 -290 -64 -386 -21 -60 26 -90 54 -98 91 -5 21 -18 35 -46 49 -37 19
-50 42 -30 54 5 4 44 13 88 22 43 9 87 21 97 26 19 10 19 11 1 24 -25 19 -154
18 -247 -1 -142 -30 -208 -76 -306 -215 -35 -51 -41 -55 -77 -54 -22 0 -54 7
-72 14 -48 21 -50 6 -9 -46 55 -72 51 -103 -32 -266 -69 -135 -102 -239 -102
-319 -1 -71 -19 -178 -36 -212 -9 -18 -54 -71 -100 -118 -100 -105 -107 -126
-130 -349 -19 -188 -47 -343 -68 -375 -11 -17 -29 -26 -61 -31 -55 -8 -102
-49 -110 -97 -2 -18 -9 -79 -14 -137 -7 -77 -18 -126 -40 -183 l-31 -78 49
-67 c66 -91 121 -183 180 -300 27 -53 65 -112 84 -131 l35 -33 54 40 c63 47
104 62 170 62 92 0 173 -58 228 -162 14 -27 32 -48 40 -48 8 0 43 7 77 15 56
13 227 42 443 75 96 14 149 38 191 86 88 101 311 320 369 363 169 126 325 177
655 216 179 21 238 38 267 75 18 22 32 30 63 31 22 2 49 -2 60 -8 27 -15 86
-79 119 -130 46 -70 57 -68 179 24 l58 44 52 -44 c74 -62 138 -107 154 -107 8
0 13 12 13 30 0 17 6 33 13 36 7 2 44 -11 82 -29 178 -87 268 -104 449 -87
151 14 276 41 420 90 63 22 153 49 201 60 191 46 253 73 400 175 187 129 260
204 330 340 85 166 51 292 -125 466 -86 86 -136 110 -275 136 -260 48 -278 52
-360 93 -46 23 -131 76 -187 118 -267 196 -460 284 -800 363 -73 17 -167 44
-208 61 -41 17 -113 43 -159 59 -116 39 -151 76 -151 158 0 62 25 70 111 36
37 -14 81 -25 96 -23 44 5 68 52 81 156 8 69 25 126 72 246 33 85 63 176 67
201 l6 45 -64 -2 c-76 -2 -103 12 -144 74 -20 30 -25 46 -18 57 5 9 76 66 159
127 219 164 247 187 271 224 22 31 32 90 16 90 -5 0 -30 -13 -58 -28z"/>
</g>
</svg>
