<?xml version="1.0" standalone="no"?>
<!DOCTYPE svg PUBLIC "-//W3C//DTD SVG 20010904//EN"
 "http://www.w3.org/TR/2001/REC-SVG-20010904/DTD/svg10.dtd">
<svg version="1.0" xmlns="http://www.w3.org/2000/svg"
 width="2400.000000pt" height="2090.000000pt" viewBox="0 0 2400.000000 2090.000000"
 preserveAspectRatio="xMidYMid meet">
<metadata>
Created by potrace 1.16, written by Peter Selinger 2001-2019
</metadata>
<g transform="translate(0.000000,2090.000000) scale(0.100000,-0.100000)"
fill="#000000" stroke="none">
<path d="M14823 16736 c-99 -32 -182 -121 -257 -279 -72 -151 -94 -299 -61
-411 20 -67 16 -107 -16 -173 -58 -119 -240 -322 -386 -429 -204 -151 -290
-239 -420 -435 -52 -78 -70 -117 -98 -210 -65 -214 -87 -332 -93 -492 -8 -235
16 -304 141 -405 181 -146 263 -319 227 -473 -26 -112 -155 -320 -242 -391
-73 -60 -181 -104 -318 -129 -100 -18 -105 -22 -65 -62 39 -39 51 -95 36 -172
-5 -27 -8 -51 -7 -53 2 -1 46 -14 97 -28 298 -79 444 -124 628 -189 308 -110
424 -135 616 -135 l80 1 30 52 c33 57 84 97 124 97 71 -1 192 -94 306 -237 39
-49 87 -97 107 -108 l37 -20 38 22 c46 26 89 91 109 164 23 88 29 310 10 398
-17 81 -37 111 -73 111 -55 0 -140 67 -178 139 -28 55 -40 163 -28 249 7 43
17 90 24 105 26 57 217 160 374 202 99 26 233 30 407 10 277 -31 355 -14 380
81 9 31 23 53 50 74 24 20 38 39 38 54 0 28 31 42 103 49 34 3 57 12 75 30 41
38 92 48 179 35 92 -15 107 -4 61 41 -52 52 -104 73 -197 82 -148 13 -212 63
-221 171 l-5 61 -48 -50 c-40 -41 -60 -53 -120 -71 -311 -90 -404 -121 -562
-183 -349 -136 -525 -186 -638 -180 -10 1 -44 28 -76 60 -51 54 -62 60 -109
67 -33 4 -71 19 -105 40 -82 53 -149 84 -181 84 -38 0 -89 55 -110 118 -9 27
-17 84 -17 132 -1 71 4 98 29 167 46 125 49 171 17 289 -15 54 -29 135 -32
179 -2 44 -14 109 -25 144 -28 88 -22 177 19 258 47 94 92 157 240 333 173
208 249 309 343 457 182 288 244 373 275 373 40 0 29 114 -20 210 -36 69 -173
156 -283 179 -69 14 -156 13 -209 -3z"/>
</g>
</svg>
