<?xml version="1.0" standalone="no"?>
<!DOCTYPE svg PUBLIC "-//W3C//DTD SVG 20010904//EN"
 "http://www.w3.org/TR/2001/REC-SVG-20010904/DTD/svg10.dtd">
<svg version="1.0" xmlns="http://www.w3.org/2000/svg"
 width="2400.000000pt" height="2090.000000pt" viewBox="0 0 2400.000000 2090.000000"
 preserveAspectRatio="xMidYMid meet">
<metadata>
Created by potrace 1.16, written by Peter Selinger 2001-2019
</metadata>
<g transform="translate(0.000000,2090.000000) scale(0.100000,-0.100000)"
fill="#000000" stroke="none">
<path d="M6660 9113 c1 -21 7 -65 15 -98 21 -86 19 -197 -5 -273 -20 -64 -20
-64 0 -109 11 -25 20 -57 20 -71 0 -23 -3 -24 -38 -19 -21 2 -61 20 -88 40
-27 19 -66 38 -87 41 -21 4 -66 22 -100 41 -34 18 -84 36 -112 40 -51 7 -49 5
-154 123 l-30 33 -79 -7 c-50 -4 -104 -2 -145 6 -51 9 -85 9 -152 1 -142 -19
-174 -43 -184 -141 -6 -53 -7 -56 -53 -80 -46 -24 -48 -26 -41 -60 11 -61 92
-110 193 -118 60 -4 71 -9 140 -60 41 -30 114 -93 161 -141 47 -47 106 -105
133 -129 43 -39 47 -46 45 -85 -2 -36 2 -47 33 -77 53 -53 75 -161 47 -224
-10 -20 -9 -39 4 -89 20 -83 34 -112 105 -227 l59 -95 224 -42 c123 -23 265
-55 314 -71 50 -17 91 -29 93 -27 5 4 42 228 62 375 23 166 25 332 8 541 -14
177 -6 260 52 504 22 94 43 177 45 186 4 13 -3 18 -32 24 -59 10 -178 71 -207
105 -27 32 -46 87 -46 131 0 46 -28 67 -107 78 -97 15 -93 16 -93 -26z"/>
</g>
</svg>
