<?xml version="1.0" standalone="no"?>
<!DOCTYPE svg PUBLIC "-//W3C//DTD SVG 20010904//EN"
 "http://www.w3.org/TR/2001/REC-SVG-20010904/DTD/svg10.dtd">
<svg version="1.0" xmlns="http://www.w3.org/2000/svg"
 width="2400.000000pt" height="2090.000000pt" viewBox="0 0 2400.000000 2090.000000"
 preserveAspectRatio="xMidYMid meet">
<metadata>
Created by potrace 1.16, written by Peter Selinger 2001-2019
</metadata>
<g transform="translate(0.000000,2090.000000) scale(0.100000,-0.100000)"
fill="#000000" stroke="none">
<path d="M14608 7840 c-40 -7 -191 -47 -390 -104 -35 -9 -38 -13 -38 -48 0
-54 -24 -106 -54 -118 -17 -6 -44 -6 -78 0 -29 6 -65 8 -79 5 -53 -12 -199
-188 -244 -295 -31 -72 -93 -165 -135 -204 -22 -20 -79 -56 -127 -80 -107 -54
-118 -64 -231 -196 -49 -58 -114 -129 -144 -158 l-54 -53 8 -72 c21 -184 67
-306 152 -403 59 -67 134 -116 236 -155 51 -20 94 -44 116 -65 19 -19 62 -92
99 -168 51 -105 74 -141 105 -166 67 -53 152 -66 197 -30 37 29 71 25 128 -15
58 -42 80 -40 134 7 71 63 131 72 201 33 94 -54 111 -58 265 -66 83 -5 182
-14 221 -20 114 -18 156 0 274 120 139 141 195 167 541 245 391 89 586 144
670 187 58 29 119 88 140 134 21 46 26 163 8 198 -6 12 -82 94 -169 182 -150
152 -190 203 -190 240 0 19 -45 88 -188 285 -89 123 -103 138 -159 168 -44 23
-82 55 -130 110 -37 42 -115 124 -173 182 -151 151 -223 183 -443 200 -85 6
-118 13 -155 33 -139 74 -171 87 -217 91 -27 3 -71 1 -97 -4z"/>
</g>
</svg>
