<?xml version="1.0" standalone="no"?>
<!DOCTYPE svg PUBLIC "-//W3C//DTD SVG 20010904//EN"
 "http://www.w3.org/TR/2001/REC-SVG-20010904/DTD/svg10.dtd">
<svg version="1.0" xmlns="http://www.w3.org/2000/svg"
 width="2400.000000pt" height="2090.000000pt" viewBox="0 0 2400.000000 2090.000000"
 preserveAspectRatio="xMidYMid meet">
<metadata>
Created by potrace 1.16, written by Peter Selinger 2001-2019
</metadata>
<g transform="translate(0.000000,2090.000000) scale(0.100000,-0.100000)"
fill="#000000" stroke="none">
<path d="M15190 5057 c-29 -171 -27 -183 65 -338 90 -152 96 -229 22 -301 -42
-40 -42 -41 -42 -112 0 -55 10 -102 44 -211 70 -222 62 -323 -26 -366 l-45
-22 49 -51 c26 -28 48 -52 48 -53 1 -3 371 114 499 158 95 33 127 40 160 35
59 -10 97 -38 133 -98 37 -61 53 -130 53 -232 l0 -72 123 4 c105 4 265 -8 310
-23 6 -2 38 35 69 83 69 104 78 145 75 317 -2 109 0 125 22 169 32 64 79 109
151 146 101 51 159 62 291 55 122 -7 159 -3 159 20 0 7 -29 54 -65 104 -43 59
-65 99 -65 118 0 15 14 62 30 103 25 59 33 97 39 187 6 78 15 124 28 149 21
41 73 74 116 74 23 0 31 7 47 43 11 23 20 49 20 58 0 26 -83 56 -201 73 -241
36 -540 6 -740 -74 -52 -21 -122 -44 -155 -50 -140 -29 -724 -21 -925 12 -94
15 -167 53 -204 107 -16 24 -40 47 -51 52 -20 7 -23 3 -34 -64z"/>
</g>
</svg>
