<?xml version="1.0" standalone="no"?>
<!DOCTYPE svg PUBLIC "-//W3C//DTD SVG 20010904//EN"
 "http://www.w3.org/TR/2001/REC-SVG-20010904/DTD/svg10.dtd">
<svg version="1.0" xmlns="http://www.w3.org/2000/svg"
 width="2400.000000pt" height="2090.000000pt" viewBox="0 0 2400.000000 2090.000000"
 preserveAspectRatio="xMidYMid meet">
<metadata>
Created by potrace 1.16, written by Peter Selinger 2001-2019
</metadata>
<g transform="translate(0.000000,2090.000000) scale(0.100000,-0.100000)"
fill="#000000" stroke="none">
<path d="M8820 8503 c-83 -203 -233 -481 -297 -553 -32 -36 -54 -50 -89 -59
-38 -10 -61 -27 -123 -89 -64 -65 -88 -82 -151 -107 -68 -27 -78 -35 -113 -88
-43 -65 -79 -92 -140 -101 -23 -4 -52 -14 -64 -22 -44 -28 -78 -120 -93 -251
-16 -142 -137 -325 -245 -370 -48 -19 -51 -27 -34 -85 17 -63 44 -83 155 -117
159 -48 168 -64 125 -207 -38 -127 -23 -192 72 -320 52 -71 106 -102 191 -111
53 -6 55 -5 104 41 53 49 100 130 133 223 30 86 38 133 48 254 13 163 25 171
174 119 90 -32 204 -50 313 -50 60 0 62 1 75 31 23 56 87 129 309 354 197 199
289 307 290 339 2 61 26 178 52 251 l32 90 -26 56 c-14 31 -61 112 -103 180
-126 200 -153 280 -135 399 5 36 10 68 10 71 0 4 -17 10 -37 14 -51 9 -198 67
-305 121 -48 24 -91 44 -96 44 -5 0 -19 -26 -32 -57z"/>
</g>
</svg>
