<?xml version="1.0" standalone="no"?>
<!DOCTYPE svg PUBLIC "-//W3C//DTD SVG 20010904//EN"
 "http://www.w3.org/TR/2001/REC-SVG-20010904/DTD/svg10.dtd">
<svg version="1.0" xmlns="http://www.w3.org/2000/svg"
 width="2400.000000pt" height="2090.000000pt" viewBox="0 0 2400.000000 2090.000000"
 preserveAspectRatio="xMidYMid meet">
<metadata>
Created by potrace 1.16, written by Peter Selinger 2001-2019
</metadata>
<g transform="translate(0.000000,2090.000000) scale(0.100000,-0.100000)"
fill="#000000" stroke="none">
<path d="M17368 4064 c-21 -11 -61 -14 -180 -12 -150 3 -154 2 -215 -26 -75
-34 -137 -98 -153 -155 -6 -24 -8 -76 -4 -133 11 -150 -15 -230 -116 -365
l-24 -33 28 -29 27 -28 72 13 c40 8 89 14 110 14 31 0 37 -3 37 -20 0 -34 -29
-68 -86 -100 -29 -17 -63 -43 -76 -58 -13 -15 -51 -51 -86 -80 -55 -48 -62
-58 -62 -91 0 -25 12 -57 36 -97 20 -32 39 -79 43 -104 8 -61 31 -63 127 -11
124 67 154 53 168 -77 9 -97 16 -103 60 -44 53 73 101 112 137 112 37 0 66
-15 168 -84 59 -41 96 -58 149 -70 118 -27 257 -16 356 27 71 31 125 28 226
-12 98 -38 134 -38 226 5 82 38 173 38 313 0 57 -15 107 -24 111 -19 18 18 92
273 101 348 18 140 -15 302 -103 510 -61 144 -78 207 -78 301 l0 71 -102 -17
c-57 -10 -153 -25 -215 -34 -62 -9 -154 -27 -205 -39 -117 -28 -137 -23 -169
46 -44 93 -138 149 -217 128 -39 -11 -125 -61 -136 -80 -4 -6 -18 -11 -32 -11
-39 0 -104 74 -154 178 -24 50 -47 92 -50 92 -3 -1 -17 -7 -32 -16z"/>
</g>
</svg>
