<?xml version="1.0" standalone="no"?>
<!DOCTYPE svg PUBLIC "-//W3C//DTD SVG 20010904//EN"
 "http://www.w3.org/TR/2001/REC-SVG-20010904/DTD/svg10.dtd">
<svg version="1.0" xmlns="http://www.w3.org/2000/svg"
 width="2400.000000pt" height="2090.000000pt" viewBox="0 0 2400.000000 2090.000000"
 preserveAspectRatio="xMidYMid meet">
<metadata>
Created by potrace 1.16, written by Peter Selinger 2001-2019
</metadata>
<g transform="translate(0.000000,2090.000000) scale(0.100000,-0.100000)"
fill="#000000" stroke="none">
<path d="M11295 12463 c-141 -80 -255 -127 -368 -154 -178 -42 -202 -82 -281
-470 -37 -181 -35 -251 10 -351 30 -68 35 -88 32 -138 l-3 -58 44 -6 c24 -3
98 -6 165 -6 l122 0 87 -61 c91 -63 107 -82 217 -256 75 -118 109 -139 216
-130 96 9 202 49 259 99 25 22 89 98 141 169 l96 129 4 72 c5 83 -6 140 -48
250 -26 65 -35 78 -57 82 -14 3 -118 22 -231 42 -113 20 -213 40 -222 45 -20
11 -21 15 -18 75 1 29 -4 46 -16 55 -9 8 -43 39 -76 70 -55 53 -58 59 -58 103
0 49 16 88 74 179 47 75 60 119 53 193 -5 51 -29 125 -40 124 -1 0 -47 -26
-102 -57z"/>
</g>
</svg>
