<?xml version="1.0" standalone="no"?>
<!DOCTYPE svg PUBLIC "-//W3C//DTD SVG 20010904//EN"
 "http://www.w3.org/TR/2001/REC-SVG-20010904/DTD/svg10.dtd">
<svg version="1.0" xmlns="http://www.w3.org/2000/svg"
 width="2400.000000pt" height="2090.000000pt" viewBox="0 0 2400.000000 2090.000000"
 preserveAspectRatio="xMidYMid meet">
<metadata>
Created by potrace 1.16, written by Peter Selinger 2001-2019
</metadata>
<g transform="translate(0.000000,2090.000000) scale(0.100000,-0.100000)"
fill="#000000" stroke="none">
<path d="M21038 1883 c-14 -16 -43 -61 -64 -102 -44 -84 -90 -125 -138 -124
-17 0 -60 13 -96 27 -106 44 -156 50 -205 26 -47 -23 -74 -53 -163 -187 -34
-51 -77 -109 -95 -130 -39 -44 -151 -99 -297 -144 -90 -28 -121 -33 -215 -33
l-110 -1 -150 86 c-291 167 -396 209 -528 209 -130 0 -174 -45 -197 -201 -21
-139 -38 -173 -95 -183 -19 -4 -60 -19 -92 -33 -50 -23 -72 -27 -153 -27 -78
0 -104 4 -145 22 -60 28 -74 39 -141 123 l-53 67 -63 0 c-39 0 -86 8 -123 21
-37 13 -70 19 -87 16 -38 -9 -88 -71 -88 -110 -1 -142 -113 -340 -288 -507
-98 -93 -255 -198 -481 -321 -22 -12 -62 -34 -88 -49 -59 -32 -140 -48 -242
-48 -42 0 -114 -7 -161 -15 -100 -18 -127 -14 -240 30 -98 39 -215 62 -346 68
l-91 4 -7 -96 c-3 -53 -6 -117 -6 -143 l0 -48 2725 0 2725 0 0 161 c0 93 -6
202 -15 258 -8 53 -19 159 -25 236 -5 77 -17 174 -25 215 -8 41 -14 92 -15
113 0 41 -17 55 -47 39 -40 -21 -43 -9 -43 179 0 197 4 182 -64 237 -14 11
-10 24 39 122 47 93 55 118 55 164 0 56 -13 106 -28 106 -4 0 -20 -12 -34 -27z
m-508 -787 c0 -8 -29 -46 -64 -85 -83 -90 -100 -122 -91 -175 3 -22 7 -59 8
-81 2 -39 1 -40 -41 -50 -35 -7 -60 -26 -135 -100 -105 -102 -198 -155 -308
-176 -124 -23 -222 28 -273 139 -14 33 -29 73 -32 89 -6 30 -6 30 78 58 113
37 146 59 169 112 24 57 66 76 219 97 152 22 185 34 320 116 114 70 150 83
150 56z"/>
</g>
</svg>
