<?xml version="1.0" standalone="no"?>
<!DOCTYPE svg PUBLIC "-//W3C//DTD SVG 20010904//EN"
 "http://www.w3.org/TR/2001/REC-SVG-20010904/DTD/svg10.dtd">
<svg version="1.0" xmlns="http://www.w3.org/2000/svg"
 width="2400.000000pt" height="2090.000000pt" viewBox="0 0 2400.000000 2090.000000"
 preserveAspectRatio="xMidYMid meet">
<metadata>
Created by potrace 1.16, written by Peter Selinger 2001-2019
</metadata>
<g transform="translate(0.000000,2090.000000) scale(0.100000,-0.100000)"
fill="#000000" stroke="none">
<path d="M7553 13941 c-14 -25 -53 -60 -113 -101 -110 -75 -140 -113 -179
-233 -52 -158 -68 -247 -118 -627 -36 -276 -37 -449 -4 -540 28 -76 77 -161
166 -285 l64 -89 133 -22 c73 -12 135 -20 137 -18 17 15 35 89 35 140 0 57 -6
74 -77 215 -58 117 -80 171 -89 224 -11 68 -10 73 15 128 34 75 90 146 231
294 114 120 196 230 196 262 0 56 -97 134 -221 179 -67 23 -86 26 -208 25 -74
-1 -143 3 -153 8 -64 34 32 124 276 260 107 59 161 108 152 136 -8 26 -55 49
-127 63 -30 6 -63 13 -74 15 -15 3 -26 -6 -42 -34z"/>
</g>
</svg>
