<?xml version="1.0" standalone="no"?>
<!DOCTYPE svg PUBLIC "-//W3C//DTD SVG 20010904//EN"
 "http://www.w3.org/TR/2001/REC-SVG-20010904/DTD/svg10.dtd">
<svg version="1.0" xmlns="http://www.w3.org/2000/svg"
 width="2400.000000pt" height="2090.000000pt" viewBox="0 0 2400.000000 2090.000000"
 preserveAspectRatio="xMidYMid meet">
<metadata>
Created by potrace 1.16, written by Peter Selinger 2001-2019
</metadata>
<g transform="translate(0.000000,2090.000000) scale(0.100000,-0.100000)"
fill="#000000" stroke="none">
<path d="M6334 9784 c-17 -8 -59 -44 -93 -79 -77 -79 -95 -86 -128 -51 -30 33
-61 49 -148 75 -85 26 -120 22 -219 -25 -95 -46 -132 -45 -212 6 -18 11 -69
-7 -465 -164 -244 -98 -447 -181 -451 -185 -16 -15 271 -175 689 -384 l252
-126 38 16 c36 16 140 20 343 12 25 -1 71 0 103 2 58 4 59 3 93 -36 18 -22 46
-55 61 -73 22 -24 40 -34 81 -42 28 -5 82 -25 120 -44 37 -19 83 -37 103 -40
20 -4 57 -22 82 -41 25 -19 55 -35 67 -35 l20 0 -20 40 c-25 50 -25 96 0 162
26 68 25 107 -1 245 -18 93 -20 118 -10 139 11 25 14 26 59 19 26 -4 69 -11
96 -15 61 -9 81 -32 90 -103 11 -86 47 -126 159 -177 79 -36 195 -60 284 -60
l68 1 -27 22 c-40 33 -36 61 13 97 64 46 139 70 222 70 87 0 135 24 228 115
68 67 95 108 139 215 17 41 42 86 55 100 l24 25 -45 60 c-25 33 -49 66 -53 73
-6 11 -15 11 -46 -2 -132 -55 -290 -74 -427 -52 -54 9 -116 16 -138 16 -53 0
-105 22 -139 59 -37 39 -135 58 -371 69 l-175 9 -115 45 c-141 56 -167 61
-206 42z"/>
</g>
</svg>
