<?xml version="1.0" standalone="no"?>
<!DOCTYPE svg PUBLIC "-//W3C//DTD SVG 20010904//EN"
 "http://www.w3.org/TR/2001/REC-SVG-20010904/DTD/svg10.dtd">
<svg version="1.0" xmlns="http://www.w3.org/2000/svg"
 width="2400.000000pt" height="2090.000000pt" viewBox="0 0 2400.000000 2090.000000"
 preserveAspectRatio="xMidYMid meet">
<metadata>
Created by potrace 1.16, written by Peter Selinger 2001-2019
</metadata>
<g transform="translate(0.000000,2090.000000) scale(0.100000,-0.100000)"
fill="#000000" stroke="none">
<path d="M15410 18943 c-24 -9 -61 -46 -71 -70 -5 -13 -20 -79 -34 -147 -45
-225 -79 -279 -192 -312 -46 -13 -82 -16 -178 -11 -158 8 -290 42 -418 107
-54 27 -107 50 -116 50 -31 0 -91 -84 -91 -127 0 -11 42 -52 107 -103 293
-233 414 -390 502 -655 49 -148 80 -301 131 -649 22 -148 41 -270 42 -271 2 0
34 -16 72 -35 151 -72 222 -184 217 -343 -1 -30 -6 -39 -24 -46 -33 -13 -92
-83 -157 -185 -168 -266 -282 -428 -401 -571 -236 -281 -284 -350 -320 -457
-22 -66 -20 -118 6 -181 7 -18 16 -72 20 -122 3 -49 17 -130 31 -180 34 -126
32 -189 -12 -327 -31 -99 -35 -122 -31 -183 9 -120 50 -189 120 -200 48 -8 90
-28 165 -79 29 -19 70 -38 90 -41 20 -3 48 -8 62 -11 13 -3 50 -32 82 -65 31
-32 64 -59 73 -59 31 0 171 32 273 62 56 16 191 65 299 109 157 63 610 209
648 209 5 0 40 30 79 68 78 74 159 197 256 392 96 191 111 263 108 496 l-3
159 37 66 c47 83 55 140 33 244 -26 126 -66 228 -163 421 -105 209 -144 301
-259 599 -203 526 -235 666 -259 1155 -7 153 -11 162 -102 264 -74 82 -111
163 -129 284 -23 147 -21 142 -44 142 -28 0 -95 36 -103 55 -12 32 -6 91 19
170 44 141 29 215 -57 290 -71 62 -152 95 -228 94 -36 0 -72 -3 -80 -6z"/>
</g>
</svg>
