<?xml version="1.0" standalone="no"?>
<!DOCTYPE svg PUBLIC "-//W3C//DTD SVG 20010904//EN"
 "http://www.w3.org/TR/2001/REC-SVG-20010904/DTD/svg10.dtd">
<svg version="1.0" xmlns="http://www.w3.org/2000/svg"
 width="2400.000000pt" height="2090.000000pt" viewBox="0 0 2400.000000 2090.000000"
 preserveAspectRatio="xMidYMid meet">
<metadata>
Created by potrace 1.16, written by Peter Selinger 2001-2019
</metadata>
<g transform="translate(0.000000,2090.000000) scale(0.100000,-0.100000)"
fill="#000000" stroke="none">
<path d="M14761 8576 c-73 -98 -249 -212 -368 -237 -75 -15 -185 -7 -295 22
l-86 23 -53 -48 c-29 -26 -64 -53 -79 -61 -46 -24 -150 -46 -226 -48 -86 -2
-81 9 -59 -135 28 -181 22 -165 58 -159 45 6 183 -10 241 -29 26 -9 95 -43
152 -76 l104 -61 202 59 c192 55 209 59 313 59 118 0 125 -2 258 -79 38 -22
67 -30 150 -38 157 -15 216 -28 297 -69 110 -55 170 -110 363 -333 40 -45 78
-76 115 -95 72 -37 83 -49 206 -227 57 -81 107 -149 113 -151 6 -2 14 5 18 16
10 31 62 76 147 126 117 69 113 55 113 350 -1 244 -2 252 -29 345 -35 121 -88
249 -133 323 -54 89 -120 148 -230 207 -146 78 -200 116 -283 201 -77 78 -132
119 -162 119 -9 0 -60 -22 -112 -49 -191 -98 -294 -93 -525 25 -79 41 -149 74
-157 74 -7 0 -31 -24 -53 -54z"/>
</g>
</svg>
