<?xml version="1.0" standalone="no"?>
<!DOCTYPE svg PUBLIC "-//W3C//DTD SVG 20010904//EN"
 "http://www.w3.org/TR/2001/REC-SVG-20010904/DTD/svg10.dtd">
<svg version="1.0" xmlns="http://www.w3.org/2000/svg"
 width="2400.000000pt" height="2090.000000pt" viewBox="0 0 2400.000000 2090.000000"
 preserveAspectRatio="xMidYMid meet">
<metadata>
Created by potrace 1.16, written by Peter Selinger 2001-2019
</metadata>
<g transform="translate(0.000000,2090.000000) scale(0.100000,-0.100000)"
fill="#000000" stroke="none">
<path d="M6355 7118 c0 -156 1 -165 25 -205 28 -47 22 -63 -15 -43 -20 10 -27
11 -39 0 -19 -15 -93 -162 -124 -242 -19 -52 -20 -60 -7 -85 18 -34 12 -59
-30 -148 -19 -38 -49 -106 -66 -150 -48 -118 -121 -218 -217 -298 l-82 -69 62
-80 c98 -127 201 -210 395 -322 154 -88 257 -127 359 -135 82 -7 103 -13 193
-56 98 -47 102 -48 116 -29 70 90 260 372 316 465 101 172 131 192 309 209
110 11 130 19 200 86 l59 56 -35 45 c-44 57 -68 104 -87 169 -14 48 -14 55 14
164 20 79 25 117 18 126 -5 7 -47 22 -92 34 -148 40 -185 71 -208 176 -12 51
-12 52 -55 59 -106 16 -200 83 -359 257 -33 36 -55 49 -120 70 -70 23 -358 84
-485 103 l-45 6 0 -163z"/>
</g>
</svg>
