<?xml version="1.0" standalone="no"?>
<!DOCTYPE svg PUBLIC "-//W3C//DTD SVG 20010904//EN"
 "http://www.w3.org/TR/2001/REC-SVG-20010904/DTD/svg10.dtd">
<svg version="1.0" xmlns="http://www.w3.org/2000/svg"
 width="2400.000000pt" height="2090.000000pt" viewBox="0 0 2400.000000 2090.000000"
 preserveAspectRatio="xMidYMid meet">
<metadata>
Created by potrace 1.16, written by Peter Selinger 2001-2019
</metadata>
<g transform="translate(0.000000,2090.000000) scale(0.100000,-0.100000)"
fill="#000000" stroke="none">
<path d="M15613 3605 c-171 -57 -322 -110 -335 -119 -13 -8 -63 -22 -113 -31
-49 -9 -151 -36 -225 -60 -74 -24 -157 -48 -184 -52 l-50 -8 0 -120 c-1 -117
-2 -122 -35 -183 -39 -72 -70 -101 -152 -143 -84 -42 -129 -84 -129 -121 0
-40 -24 -78 -66 -106 -33 -21 -34 -24 -34 -86 0 -36 5 -77 10 -92 6 -15 49
-67 97 -115 l85 -88 83 6 c76 5 84 4 104 -16 27 -27 18 -42 -39 -61 -45 -15
-74 -51 -65 -81 4 -11 19 -35 34 -52 15 -18 38 -49 50 -69 22 -36 25 -38 75
-38 68 0 267 26 383 50 105 22 110 21 233 -40 47 -23 96 -47 110 -54 30 -14
36 -44 19 -103 -20 -74 -44 -77 -149 -20 -102 55 -185 77 -293 77 -58 0 -88
-5 -122 -21 -25 -12 -48 -25 -51 -30 -3 -5 -27 -7 -53 -3 -43 6 -49 4 -64 -20
-22 -33 -31 -78 -23 -110 3 -13 33 -57 66 -98 78 -94 113 -170 134 -288 27
-150 37 -190 46 -190 4 0 13 14 21 31 38 93 95 114 148 54 42 -48 58 -83 76
-159 21 -89 34 -121 44 -110 5 5 21 38 35 73 46 115 75 126 158 61 63 -50 84
-49 80 4 -5 61 -59 213 -113 315 -63 120 -64 148 -6 170 43 17 65 14 137 -20
77 -35 114 -30 126 17 8 30 -2 40 -85 96 -46 31 -53 61 -25 104 43 64 140 69
228 10 29 -19 58 -42 65 -50 8 -9 18 -16 24 -16 9 0 8 11 -12 125 -4 27 -5 62
0 78 6 21 4 36 -7 52 -23 35 -125 95 -161 95 -26 0 -297 137 -325 165 -36 34
-35 64 2 100 17 16 30 34 30 40 0 6 -14 32 -31 58 -30 46 -30 47 -13 76 18 31
52 51 84 51 11 0 44 -9 75 -21 31 -12 59 -18 63 -15 11 12 -29 74 -120 183
-119 144 -165 214 -184 281 -29 100 -5 169 71 203 66 29 93 8 80 -65 -6 -31
-2 -39 36 -80 43 -48 167 -136 190 -136 7 0 2 12 -13 28 -34 35 -46 79 -24 88
28 11 60 -4 146 -66 121 -88 133 -81 40 25 -68 78 -79 100 -56 123 15 15 21
15 74 1 31 -9 66 -20 77 -24 11 -5 -9 22 -44 61 -64 69 -93 118 -84 140 2 7
28 16 56 19 37 6 58 15 77 35 35 37 62 50 108 50 l39 0 7 75 c8 86 1 134 -25
187 -21 41 -63 78 -88 77 -9 0 -156 -47 -328 -104z"/>
<path d="M15513 2314 c-22 -9 -1 -34 106 -123 58 -49 117 -101 130 -115 14
-14 33 -26 43 -26 11 0 42 -10 69 -21 27 -12 52 -19 56 -15 3 3 6 26 6 51 0
59 -29 90 -103 112 -73 21 -123 47 -168 87 -58 52 -98 66 -139 50z"/>
</g>
</svg>
