<?xml version="1.0" standalone="no"?>
<!DOCTYPE svg PUBLIC "-//W3C//DTD SVG 20010904//EN"
 "http://www.w3.org/TR/2001/REC-SVG-20010904/DTD/svg10.dtd">
<svg version="1.0" xmlns="http://www.w3.org/2000/svg"
 width="2400.000000pt" height="2090.000000pt" viewBox="0 0 2400.000000 2090.000000"
 preserveAspectRatio="xMidYMid meet">
<metadata>
Created by potrace 1.16, written by Peter Selinger 2001-2019
</metadata>
<g transform="translate(0.000000,2090.000000) scale(0.100000,-0.100000)"
fill="#000000" stroke="none">
<path d="M10213 11709 c-285 -48 -551 -354 -638 -733 -13 -55 -65 -440 -65
-478 0 -14 5 -14 47 0 40 13 65 14 187 4 242 -21 306 -13 366 44 92 87 210 84
295 -6 40 -42 81 -63 108 -54 47 14 98 78 119 148 19 67 21 224 3 345 l-18
119 27 129 c29 146 28 169 -18 258 -26 51 -30 71 -32 145 l-2 85 -164 1 c-89
1 -186 -2 -215 -7z"/>
</g>
</svg>
