<?xml version="1.0" standalone="no"?>
<!DOCTYPE svg PUBLIC "-//W3C//DTD SVG 20010904//EN"
 "http://www.w3.org/TR/2001/REC-SVG-20010904/DTD/svg10.dtd">
<svg version="1.0" xmlns="http://www.w3.org/2000/svg"
 width="2400.000000pt" height="2090.000000pt" viewBox="0 0 2400.000000 2090.000000"
 preserveAspectRatio="xMidYMid meet">
<metadata>
Created by potrace 1.16, written by Peter Selinger 2001-2019
</metadata>
<g transform="translate(0.000000,2090.000000) scale(0.100000,-0.100000)"
fill="#000000" stroke="none">
<path d="M9550 10470 c-14 -6 -34 -20 -45 -30 -11 -10 -49 -32 -85 -49 -153
-72 -240 -191 -372 -511 -65 -156 -107 -204 -215 -244 -40 -15 -73 -31 -73
-34 1 -12 82 -68 138 -96 29 -15 96 -38 150 -52 196 -53 232 -90 232 -244 0
-89 11 -132 42 -173 13 -17 16 -15 45 31 60 97 110 225 138 352 29 131 57 200
97 236 12 12 57 41 98 64 93 52 154 98 173 130 8 14 20 58 26 98 8 49 25 100
51 153 52 103 70 174 70 279 l0 86 -77 0 c-43 -1 -143 3 -223 7 -97 5 -153 4
-170 -3z"/>
</g>
</svg>
