<?xml version="1.0" standalone="no"?>
<!DOCTYPE svg PUBLIC "-//W3C//DTD SVG 20010904//EN"
 "http://www.w3.org/TR/2001/REC-SVG-20010904/DTD/svg10.dtd">
<svg version="1.0" xmlns="http://www.w3.org/2000/svg"
 width="2400.000000pt" height="2090.000000pt" viewBox="0 0 2400.000000 2090.000000"
 preserveAspectRatio="xMidYMid meet">
<metadata>
Created by potrace 1.16, written by Peter Selinger 2001-2019
</metadata>
<g transform="translate(0.000000,2090.000000) scale(0.100000,-0.100000)"
fill="#000000" stroke="none">
<path d="M12899 2964 c-110 -164 -143 -227 -134 -255 4 -11 44 -44 90 -74 55
-35 94 -69 112 -96 26 -39 28 -50 28 -139 0 -74 -5 -106 -20 -139 l-19 -43
-47 5 c-61 7 -115 -8 -131 -36 -6 -12 -15 -49 -19 -82 -13 -106 -144 -328
-222 -375 -62 -38 -152 -17 -193 45 -12 18 -15 39 -12 74 l5 49 -52 31 c-28
17 -63 31 -77 31 -28 0 -72 -30 -89 -61 -9 -17 -5 -22 25 -34 19 -8 41 -25 47
-37 20 -37 12 -123 -20 -221 -31 -95 -51 -217 -51 -322 0 -68 -25 -134 -61
-159 -46 -32 -189 -11 -269 39 -22 14 -70 53 -107 86 -67 61 -321 237 -398
276 -22 12 -86 35 -142 52 -78 24 -114 41 -154 74 -28 23 -57 46 -63 51 -8 5
-109 -36 -279 -114 -235 -109 -265 -125 -257 -141 24 -44 -1 -136 -51 -189
-13 -14 -56 -51 -95 -82 -124 -99 -165 -173 -149 -274 6 -41 17 -57 110 -153
58 -60 114 -129 128 -158 57 -112 56 -252 -3 -414 -16 -46 -30 -86 -30 -91 0
-4 1223 -8 2719 -8 l2718 0 7 52 c3 29 6 100 6 158 0 88 -4 114 -24 160 -13
30 -71 167 -129 304 -64 151 -112 253 -124 259 -10 6 -36 25 -59 43 -36 30
-42 32 -60 19 -11 -7 -33 -45 -48 -83 -15 -38 -35 -77 -45 -86 -17 -16 -20
-16 -35 -1 -8 9 -20 35 -26 58 -34 133 -51 176 -88 217 -34 39 -40 42 -59 30
-11 -7 -31 -36 -44 -64 -17 -36 -31 -52 -46 -54 -28 -4 -38 19 -59 128 -32
165 -37 187 -61 237 -13 29 -51 85 -83 124 -70 83 -89 131 -72 188 7 21 22 51
34 66 19 24 26 27 66 22 34 -4 55 1 92 20 60 31 137 39 241 24 93 -14 154 -36
224 -80 60 -38 80 -39 93 -3 28 72 33 65 -99 131 -67 34 -130 61 -140 61 -10
0 -42 -6 -72 -14 -78 -20 -418 -60 -449 -53 -16 4 -35 22 -49 44 -12 21 -35
52 -52 70 -19 20 -32 49 -38 80 -11 55 -6 60 71 95 l45 20 -30 11 c-20 7 -42
7 -72 -1 -24 -7 -50 -12 -58 -12 -22 0 -184 158 -205 200 -11 23 -19 68 -23
129 l-5 94 -90 86 c-49 47 -124 118 -167 157 l-78 71 -168 -55 c-167 -56 -168
-56 -182 -93 -9 -24 -27 -43 -47 -54 l-33 -17 -106 53 c-121 60 -329 204 -361
249 -12 17 -25 30 -31 30 -5 0 -50 -61 -100 -136z"/>
</g>
</svg>
