<?xml version="1.0" standalone="no"?>
<!DOCTYPE svg PUBLIC "-//W3C//DTD SVG 20010904//EN"
 "http://www.w3.org/TR/2001/REC-SVG-20010904/DTD/svg10.dtd">
<svg version="1.0" xmlns="http://www.w3.org/2000/svg"
 width="2400.000000pt" height="2090.000000pt" viewBox="0 0 2400.000000 2090.000000"
 preserveAspectRatio="xMidYMid meet">
<metadata>
Created by potrace 1.16, written by Peter Selinger 2001-2019
</metadata>
<g transform="translate(0.000000,2090.000000) scale(0.100000,-0.100000)"
fill="#000000" stroke="none">
<path d="M6228 11931 c-87 -34 -115 -58 -148 -124 -38 -79 -77 -247 -89 -382
-10 -116 -16 -128 -91 -210 -25 -27 -70 -78 -99 -113 -90 -106 -143 -119 -341
-89 -113 18 -140 16 -300 -22 -107 -25 -190 -36 -410 -57 -96 -8 -178 -18
-182 -20 -4 -3 -16 -1 -25 5 -15 9 -84 -56 -449 -421 l-432 -431 122 -90 c66
-49 168 -129 226 -177 215 -179 459 -363 527 -398 28 -15 910 338 938 375 60
80 70 88 120 85 57 -2 121 26 246 110 91 61 129 98 129 128 0 51 101 82 108
33 5 -33 20 -28 65 19 49 51 73 53 210 11 129 -38 198 -37 260 5 70 49 69 53
-20 46 -103 -9 -119 0 -258 136 -100 98 -116 110 -170 125 -155 44 -209 113
-156 201 27 44 74 62 229 90 75 14 151 29 168 35 41 13 74 72 74 132 0 86 -16
104 -105 123 -34 8 -40 13 -40 34 0 50 246 205 343 217 56 6 89 -7 166 -68 27
-22 51 -39 55 -39 10 0 45 50 58 84 16 44 16 181 -2 273 -8 43 -15 104 -15
137 l0 59 -87 -7 c-111 -9 -260 8 -326 36 -28 12 -93 55 -144 95 -52 40 -97
73 -101 73 -4 -1 -28 -9 -54 -19z"/>
</g>
</svg>
