<?xml version="1.0" standalone="no"?>
<!DOCTYPE svg PUBLIC "-//W3C//DTD SVG 20010904//EN"
 "http://www.w3.org/TR/2001/REC-SVG-20010904/DTD/svg10.dtd">
<svg version="1.0" xmlns="http://www.w3.org/2000/svg"
 width="2400.000000pt" height="2090.000000pt" viewBox="0 0 2400.000000 2090.000000"
 preserveAspectRatio="xMidYMid meet">
<metadata>
Created by potrace 1.16, written by Peter Selinger 2001-2019
</metadata>
<g transform="translate(0.000000,2090.000000) scale(0.100000,-0.100000)"
fill="#000000" stroke="none">
<path d="M10660 11176 c-13 -34 -13 -118 0 -184 12 -65 16 -262 6 -330 -10
-64 -45 -130 -92 -171 -27 -25 -44 -31 -79 -31 -38 0 -50 6 -97 48 -68 63 -87
72 -143 72 -51 0 -89 -16 -122 -52 -19 -21 -21 -37 -25 -168 -5 -156 -5 -154
-79 -307 -27 -54 -42 -101 -46 -140 -11 -110 -62 -171 -225 -267 -102 -60
-120 -78 -138 -146 -10 -38 -10 -45 5 -57 10 -6 120 -46 246 -87 280 -92 350
-129 516 -268 101 -86 175 -161 247 -254 31 -40 62 -74 70 -77 19 -8 63 17
116 67 60 56 119 89 210 116 88 26 130 46 227 108 51 33 71 51 67 62 -18 48
-28 158 -28 330 0 215 8 285 75 620 38 193 69 381 69 420 0 19 -7 20 -125 20
-72 0 -125 4 -125 9 0 6 23 36 51 68 72 81 76 94 50 137 -12 19 -37 45 -56 56
-46 28 -140 142 -169 205 -26 55 -50 174 -40 199 5 14 -5 16 -83 16 -50 0
-131 3 -181 6 l-91 7 -11 -27z"/>
</g>
</svg>
