<?xml version="1.0" standalone="no"?>
<!DOCTYPE svg PUBLIC "-//W3C//DTD SVG 20010904//EN"
 "http://www.w3.org/TR/2001/REC-SVG-20010904/DTD/svg10.dtd">
<svg version="1.0" xmlns="http://www.w3.org/2000/svg"
 width="2400.000000pt" height="2090.000000pt" viewBox="0 0 2400.000000 2090.000000"
 preserveAspectRatio="xMidYMid meet">
<metadata>
Created by potrace 1.16, written by Peter Selinger 2001-2019
</metadata>
<g transform="translate(0.000000,2090.000000) scale(0.100000,-0.100000)"
fill="#000000" stroke="none">
<path d="M7654 10555 c-163 -75 -310 -125 -368 -125 -42 0 -110 -44 -165 -106
-76 -86 -99 -165 -81 -279 16 -101 50 -191 103 -274 26 -39 53 -87 61 -106 17
-39 77 -75 128 -75 18 0 71 -7 118 -15 164 -29 319 -10 457 56 92 44 88 56
-43 108 -121 48 -155 94 -109 149 14 17 92 71 174 121 253 154 303 198 342
301 24 65 24 113 -1 166 -39 79 -150 129 -324 144 -55 5 -108 9 -116 9 -8 0
-87 -34 -176 -74z"/>
</g>
</svg>
