<?xml version="1.0" standalone="no"?>
<!DOCTYPE svg PUBLIC "-//W3C//DTD SVG 20010904//EN"
 "http://www.w3.org/TR/2001/REC-SVG-20010904/DTD/svg10.dtd">
<svg version="1.0" xmlns="http://www.w3.org/2000/svg"
 width="2400.000000pt" height="2090.000000pt" viewBox="0 0 2400.000000 2090.000000"
 preserveAspectRatio="xMidYMid meet">
<metadata>
Created by potrace 1.16, written by Peter Selinger 2001-2019
</metadata>
<g transform="translate(0.000000,2090.000000) scale(0.100000,-0.100000)"
fill="#000000" stroke="none">
<path d="M15209 13203 c-29 -68 -24 -227 10 -293 42 -81 90 -121 163 -134 50
-9 74 -42 89 -125 16 -91 6 -367 -15 -435 -47 -147 -143 -211 -233 -156 -18
11 -54 48 -80 82 -26 35 -77 92 -113 127 -118 116 -187 145 -243 101 -30 -24
-77 -102 -107 -180 -11 -30 -27 -68 -34 -85 -37 -82 -96 -260 -106 -316 -11
-73 -13 -146 -4 -212 6 -45 8 -47 55 -62 65 -22 118 -83 161 -186 54 -130 115
-187 218 -204 145 -23 229 -127 252 -312 14 -111 -6 -239 -58 -360 l-36 -83
77 -89 c88 -104 129 -138 242 -205 45 -27 111 -75 145 -107 l64 -57 109 90
c196 160 285 242 328 298 95 127 108 135 284 180 132 33 178 182 139 445 -28
180 -31 302 -11 355 9 25 26 72 38 105 l20 60 -23 93 c-22 85 -23 99 -11 155
7 34 19 75 27 92 8 16 26 84 39 151 49 239 25 462 -64 597 -13 21 -53 59 -87
83 -92 66 -155 141 -212 251 -55 107 -96 153 -156 178 -33 14 -63 16 -200 10
-315 -14 -468 26 -591 154 -21 22 -43 41 -47 41 -5 0 -18 -21 -29 -47z"/>
</g>
</svg>
