<?xml version="1.0" standalone="no"?>
<!DOCTYPE svg PUBLIC "-//W3C//DTD SVG 20010904//EN"
 "http://www.w3.org/TR/2001/REC-SVG-20010904/DTD/svg10.dtd">
<svg version="1.0" xmlns="http://www.w3.org/2000/svg"
 width="2400.000000pt" height="2090.000000pt" viewBox="0 0 2400.000000 2090.000000"
 preserveAspectRatio="xMidYMid meet">
<metadata>
Created by potrace 1.16, written by Peter Selinger 2001-2019
</metadata>
<g transform="translate(0.000000,2090.000000) scale(0.100000,-0.100000)"
fill="#000000" stroke="none">
<path d="M6524 12871 c-68 -32 -104 -70 -104 -110 0 -41 13 -52 54 -49 50 3
57 -11 54 -106 -4 -95 7 -105 57 -51 28 32 39 37 62 32 40 -8 48 0 69 63 17
52 60 110 83 110 34 0 46 -47 42 -160 -3 -56 -55 -149 -132 -235 -39 -44 -82
-102 -95 -130 -42 -89 -30 -126 51 -149 31 -10 61 -26 69 -38 l16 -22 31 23
c37 28 62 20 67 -22 5 -39 26 -50 92 -48 32 1 61 -3 65 -8 6 -10 1 -16 -65
-70 l-35 -29 28 -26 c26 -24 32 -49 30 -121 0 -11 8 -81 18 -155 23 -166 24
-204 2 -286 -14 -52 -24 -70 -52 -91 -28 -22 -37 -24 -52 -14 -18 11 -19 7
-19 -68 0 -84 15 -134 49 -165 11 -10 80 -40 153 -66 73 -26 156 -57 184 -68
l52 -21 -1 272 -2 272 28 75 c73 193 79 250 55 474 -10 91 -16 113 -35 134
-44 47 -192 277 -223 345 -48 106 -61 186 -52 323 l7 116 -52 23 c-38 17 -101
29 -233 45 -99 11 -186 23 -193 25 -7 3 -39 -8 -73 -24z"/>
</g>
</svg>
