<?xml version="1.0" standalone="no"?>
<!DOCTYPE svg PUBLIC "-//W3C//DTD SVG 20010904//EN"
 "http://www.w3.org/TR/2001/REC-SVG-20010904/DTD/svg10.dtd">
<svg version="1.0" xmlns="http://www.w3.org/2000/svg"
 width="2400.000000pt" height="2090.000000pt" viewBox="0 0 2400.000000 2090.000000"
 preserveAspectRatio="xMidYMid meet">
<metadata>
Created by potrace 1.16, written by Peter Selinger 2001-2019
</metadata>
<g transform="translate(0.000000,2090.000000) scale(0.100000,-0.100000)"
fill="#000000" stroke="none">
<path d="M9860 5446 c-68 -28 -99 -47 -174 -109 -76 -62 -93 -70 -207 -102
-178 -49 -259 -86 -381 -171 -42 -30 -107 -69 -145 -87 -61 -29 -77 -32 -158
-32 -96 0 -103 2 -189 70 -55 42 -106 113 -106 145 0 15 -8 34 -17 42 -39 34
-69 41 -173 42 l-105 1 -92 52 c-153 87 -196 89 -348 19 -123 -57 -194 -170
-195 -310 -1 -83 -26 -202 -58 -269 -39 -85 -108 -142 -254 -212 -169 -80
-271 -111 -428 -130 -150 -17 -334 -52 -365 -68 -30 -16 -44 -39 -45 -74 0
-56 -7 -63 -64 -63 -57 0 -72 -10 -129 -80 -20 -25 -58 -61 -85 -80 -46 -33
-118 -133 -212 -295 -13 -22 -40 -59 -61 -81 -59 -65 -72 -99 -66 -163 6 -62
31 -123 79 -193 l33 -47 145 0 c290 -1 458 24 617 93 172 75 208 95 228 125
76 118 288 134 394 31 l36 -35 265 32 c370 45 537 55 721 43 165 -11 172 -11
329 -42 100 -19 383 -103 630 -186 l115 -39 15 31 c26 56 19 124 -19 183 -18
29 -36 67 -40 85 -8 37 18 138 34 138 6 0 30 -6 55 -14 55 -16 85 -9 193 46
43 22 99 43 125 46 l47 7 3 58 c3 57 2 59 -48 114 -28 31 -63 79 -78 107 -25
48 -27 59 -27 181 0 112 3 137 22 177 30 67 59 92 134 117 74 25 134 77 180
158 16 29 40 60 53 68 52 34 176 27 340 -21 27 -8 51 -13 52 -11 2 2 -4 25
-12 52 -8 28 -19 115 -24 195 -13 210 -22 230 -148 319 -42 30 -96 71 -120 91
-23 21 -58 45 -76 54 -47 22 -130 19 -196 -8z"/>
</g>
</svg>
