<?xml version="1.0" standalone="no"?>
<!DOCTYPE svg PUBLIC "-//W3C//DTD SVG 20010904//EN"
 "http://www.w3.org/TR/2001/REC-SVG-20010904/DTD/svg10.dtd">
<svg version="1.0" xmlns="http://www.w3.org/2000/svg"
 width="2400.000000pt" height="2090.000000pt" viewBox="0 0 2400.000000 2090.000000"
 preserveAspectRatio="xMidYMid meet">
<metadata>
Created by potrace 1.16, written by Peter Selinger 2001-2019
</metadata>
<g transform="translate(0.000000,2090.000000) scale(0.100000,-0.100000)"
fill="#000000" stroke="none">
<path d="M1380 10499 c-169 -9 -450 -35 -533 -49 -184 -31 -300 -57 -512 -113
l-240 -64 -3 -5097 -2 -5097 85 3 85 3 46 135 c75 223 218 489 350 652 41 51
70 76 114 98 65 33 191 150 233 217 41 66 236 203 372 262 90 40 193 60 408
81 321 31 366 38 423 64 125 57 250 172 473 431 205 238 328 360 380 376 l41
12 0 77 0 77 -50 31 c-53 33 -87 79 -94 127 -3 17 -10 81 -16 143 -6 62 -20
137 -31 166 -59 158 -239 326 -348 326 -20 0 -61 -7 -91 -15 -89 -24 -155 -20
-229 15 -35 17 -75 39 -90 50 -16 10 -64 37 -108 59 -44 22 -83 47 -87 56 -9
24 17 77 83 169 73 101 81 119 92 219 7 56 19 97 44 146 59 118 55 221 -8 221
-54 0 -95 20 -106 52 -27 77 -6 200 58 333 49 103 80 139 151 175 33 16 78 52
106 83 87 96 291 464 372 672 19 50 54 167 77 260 24 94 60 215 80 270 36 98
37 102 31 205 -3 58 -9 133 -12 167 -5 51 -3 69 15 107 29 59 146 154 176 142
8 -3 15 0 17 6 3 7 14 6 33 -5 40 -20 133 -40 169 -35 23 2 32 10 40 35 16 46
33 60 101 78 134 34 195 17 290 -80 84 -87 123 -108 327 -175 154 -51 287
-112 553 -255 81 -43 186 -90 249 -111 61 -20 149 -56 198 -80 98 -49 180 -74
244 -74 60 0 89 -14 149 -69 58 -52 120 -77 220 -87 59 -6 61 -6 115 37 137
107 205 199 270 364 17 44 45 104 61 132 32 57 36 83 17 113 -18 28 1 90 68
228 38 79 63 118 83 130 24 15 27 20 19 42 -5 14 -9 95 -9 182 1 181 -5 203
-79 319 -84 131 -116 249 -90 328 19 59 -2 132 -53 188 -35 38 -39 47 -34 79
5 31 2 39 -35 75 -22 21 -45 39 -51 39 -11 0 -33 23 -91 94 -21 26 -78 78
-127 116 -84 65 -93 69 -156 76 -76 8 -122 26 -176 69 -34 28 -37 34 -37 81 0
48 2 53 29 64 43 17 62 43 68 92 3 24 10 51 14 60 8 15 -41 42 -348 197 -538
271 -733 395 -1133 721 -443 362 -629 470 -1035 603 -342 112 -559 157 -860
177 -181 11 -525 11 -755 -1z"/>
</g>
</svg>
