<?xml version="1.0" standalone="no"?>
<!DOCTYPE svg PUBLIC "-//W3C//DTD SVG 20010904//EN"
 "http://www.w3.org/TR/2001/REC-SVG-20010904/DTD/svg10.dtd">
<svg version="1.0" xmlns="http://www.w3.org/2000/svg"
 width="2400.000000pt" height="2090.000000pt" viewBox="0 0 2400.000000 2090.000000"
 preserveAspectRatio="xMidYMid meet">
<metadata>
Created by potrace 1.16, written by Peter Selinger 2001-2019
</metadata>
<g transform="translate(0.000000,2090.000000) scale(0.100000,-0.100000)"
fill="#000000" stroke="none">
<path d="M8355 6631 c-3 -6 -10 -64 -15 -130 -7 -95 -16 -142 -43 -220 -56
-165 -137 -279 -211 -300 -48 -13 -160 3 -204 29 -18 11 -35 20 -37 20 -3 0
-34 -27 -70 -59 -76 -69 -94 -76 -233 -90 -57 -6 -113 -16 -125 -22 -41 -21
-78 -64 -115 -129 -51 -93 -166 -268 -260 -399 -45 -61 -82 -115 -82 -120 0
-12 302 -198 386 -238 81 -39 180 -55 189 -32 2 8 9 53 14 102 12 102 38 167
89 220 63 66 212 129 303 129 48 0 54 -2 244 -101 45 -23 60 -26 141 -23 134
3 203 -32 204 -105 0 -26 12 -45 58 -91 141 -145 262 -144 474 4 90 63 204
125 249 137 21 6 21 8 -20 52 -83 90 -95 176 -55 394 5 26 0 47 -26 97 -47 91
-52 180 -17 251 14 27 38 64 53 82 29 35 29 33 -28 96 -62 67 -61 138 0 241
47 77 44 96 -15 120 -41 17 -73 13 -153 -23 -94 -41 -177 -30 -195 27 -5 16
-23 18 -148 22 -124 5 -155 9 -241 37 -113 36 -103 34 -111 22z"/>
</g>
</svg>
