<?xml version="1.0" standalone="no"?>
<!DOCTYPE svg PUBLIC "-//W3C//DTD SVG 20010904//EN"
 "http://www.w3.org/TR/2001/REC-SVG-20010904/DTD/svg10.dtd">
<svg version="1.0" xmlns="http://www.w3.org/2000/svg"
 width="2400.000000pt" height="2090.000000pt" viewBox="0 0 2400.000000 2090.000000"
 preserveAspectRatio="xMidYMid meet">
<metadata>
Created by potrace 1.16, written by Peter Selinger 2001-2019
</metadata>
<g transform="translate(0.000000,2090.000000) scale(0.100000,-0.100000)"
fill="#000000" stroke="none">
<path d="M23675 15442 c-243 -125 -331 -173 -459 -255 -209 -132 -395 -197
-751 -262 -292 -53 -454 -107 -758 -249 -295 -139 -458 -188 -722 -216 -239
-25 -369 -67 -532 -171 -198 -126 -261 -162 -398 -230 -239 -117 -381 -155
-633 -169 -388 -23 -595 -113 -746 -324 -106 -150 -149 -289 -160 -521 -6
-124 -16 -167 -49 -216 -48 -72 -145 -61 -314 34 -131 75 -190 85 -251 44 -39
-25 -48 -37 -195 -262 -154 -237 -275 -368 -390 -425 -99 -48 -178 -61 -422
-69 l-219 -6 -12 -85 c-15 -118 -52 -288 -71 -329 -25 -54 -27 -105 -8 -175
25 -91 17 -183 -21 -256 -24 -48 -28 -65 -27 -135 1 -44 11 -137 22 -207 39
-236 22 -373 -57 -464 -26 -31 -87 -59 -157 -75 -91 -19 -120 -35 -157 -81
-75 -94 -192 -208 -345 -335 l-163 -134 15 -30 c9 -16 25 -75 36 -131 12 -62
36 -137 59 -188 41 -89 80 -213 100 -318 l13 -62 27 43 c50 80 105 115 220
142 41 9 140 37 220 60 80 24 208 60 285 80 77 20 160 43 185 51 57 17 694
177 945 238 274 65 424 94 560 107 142 13 225 8 398 -26 l128 -25 68 40 c120
71 167 83 311 77 69 -3 179 -15 245 -27 75 -14 164 -23 235 -24 109 -1 118 1
175 29 78 40 108 80 151 205 44 130 98 234 131 256 21 13 41 15 96 11 63 -4
87 -13 241 -90 244 -123 314 -142 478 -135 85 4 114 9 162 31 89 41 115 42
270 8 200 -44 226 -66 366 -305 193 -333 319 -473 459 -512 106 -29 122 -36
152 -61 42 -36 67 -90 79 -175 25 -163 76 -279 148 -334 63 -47 221 -122 402
-189 426 -157 544 -217 701 -357 45 -40 104 -92 130 -116 l49 -44 0 3731 c0
2052 -3 3731 -7 3731 -5 0 -111 -53 -238 -118z"/>
</g>
</svg>
