<?xml version="1.0" standalone="no"?>
<!DOCTYPE svg PUBLIC "-//W3C//DTD SVG 20010904//EN"
 "http://www.w3.org/TR/2001/REC-SVG-20010904/DTD/svg10.dtd">
<svg version="1.0" xmlns="http://www.w3.org/2000/svg"
 width="2400.000000pt" height="2090.000000pt" viewBox="0 0 2400.000000 2090.000000"
 preserveAspectRatio="xMidYMid meet">
<metadata>
Created by potrace 1.16, written by Peter Selinger 2001-2019
</metadata>
<g transform="translate(0.000000,2090.000000) scale(0.100000,-0.100000)"
fill="#000000" stroke="none">
<path d="M11525 9109 c-60 -22 -124 -44 -141 -48 -17 -5 -58 -26 -90 -48 -84
-57 -172 -99 -252 -122 -98 -27 -115 -37 -243 -152 -181 -161 -252 -201 -389
-215 -92 -9 -161 -38 -233 -95 -85 -68 -156 -154 -235 -284 -105 -175 -142
-205 -309 -254 -40 -12 -73 -24 -73 -28 0 -3 16 -38 36 -79 33 -65 36 -80 31
-126 -3 -29 -17 -79 -32 -112 -14 -32 -30 -93 -35 -135 -6 -42 -13 -89 -16
-105 l-6 -28 193 5 c152 4 212 9 277 26 143 36 222 25 297 -41 41 -36 46 -38
114 -38 85 0 132 -17 184 -68 36 -35 42 -37 100 -37 34 1 121 7 192 14 185 19
483 9 589 -18 44 -12 81 -20 82 -18 2 1 -3 40 -11 86 -9 46 -12 101 -8 125 8
55 53 97 123 115 42 11 67 27 116 72 54 50 69 59 113 65 36 5 51 11 51 22 0
36 -161 258 -343 472 -170 200 -205 288 -154 392 33 65 101 119 243 189 56 28
104 53 107 55 8 9 -147 454 -158 453 -5 0 -59 -18 -120 -40z"/>
</g>
</svg>
