<?xml version="1.0" standalone="no"?>
<!DOCTYPE svg PUBLIC "-//W3C//DTD SVG 20010904//EN"
 "http://www.w3.org/TR/2001/REC-SVG-20010904/DTD/svg10.dtd">
<svg version="1.0" xmlns="http://www.w3.org/2000/svg"
 width="2400.000000pt" height="2090.000000pt" viewBox="0 0 2400.000000 2090.000000"
 preserveAspectRatio="xMidYMid meet">
<metadata>
Created by potrace 1.16, written by Peter Selinger 2001-2019
</metadata>
<g transform="translate(0.000000,2090.000000) scale(0.100000,-0.100000)"
fill="#000000" stroke="none">
<path d="M3044 2361 c-57 -33 -144 -123 -354 -366 -236 -273 -364 -385 -497
-435 -50 -19 -165 -34 -413 -55 -131 -11 -263 -34 -324 -55 -159 -54 -361
-188 -436 -286 -66 -88 -160 -176 -226 -211 -33 -18 -71 -44 -86 -60 -78 -83
-240 -348 -308 -503 -26 -59 -110 -294 -110 -307 0 -2 1951 -3 4335 -3 l4335
0 0 398 c0 635 24 798 142 978 27 43 52 83 55 90 2 7 -12 14 -37 18 -23 4 -65
18 -93 33 -81 41 -156 63 -233 70 -69 6 -71 5 -103 -26 -17 -17 -41 -31 -52
-31 -11 0 -79 23 -152 51 -149 57 -141 56 -327 15 -128 -28 -189 -47 -238 -76
-58 -35 -82 -27 -179 53 -114 95 -139 112 -202 137 -106 42 -207 52 -596 60
-312 6 -378 10 -420 25 -68 24 -304 32 -455 15 -162 -17 -249 -41 -457 -126
-211 -86 -246 -91 -309 -46 -37 28 -44 29 -144 27 -118 -1 -125 -4 -207 -76
-32 -29 -85 -64 -118 -80 -52 -25 -72 -29 -149 -29 -106 0 -298 37 -418 80
-106 38 -156 78 -164 129 -10 63 -14 65 -85 40 -56 -19 -77 -21 -174 -15 -201
11 -386 65 -458 134 -40 37 -82 124 -134 277 -25 71 -54 142 -65 158 -26 37
-76 36 -144 -2z"/>
</g>
</svg>
