<?xml version="1.0" standalone="no"?>
<!DOCTYPE svg PUBLIC "-//W3C//DTD SVG 20010904//EN"
 "http://www.w3.org/TR/2001/REC-SVG-20010904/DTD/svg10.dtd">
<svg version="1.0" xmlns="http://www.w3.org/2000/svg"
 width="2400.000000pt" height="2090.000000pt" viewBox="0 0 2400.000000 2090.000000"
 preserveAspectRatio="xMidYMid meet">
<metadata>
Created by potrace 1.16, written by Peter Selinger 2001-2019
</metadata>
<g transform="translate(0.000000,2090.000000) scale(0.100000,-0.100000)"
fill="#000000" stroke="none">
<path d="M90 15559 c0 -4767 1 -5241 16 -5235 40 15 480 127 569 145 212 42
463 66 846 82 521 21 923 -13 1244 -107 372 -107 586 -190 755 -290 51 -30 95
-54 99 -54 10 0 871 864 871 874 0 5 11 24 25 42 l26 33 -41 26 c-43 27 -48
41 -25 71 20 26 19 34 -4 34 -25 0 -63 48 -59 74 2 11 19 31 38 44 44 29 46
36 21 68 -23 29 -26 55 -11 85 15 26 54 24 107 -7 71 -41 90 -33 144 65 52 96
136 188 194 216 23 10 81 22 135 28 146 14 155 17 90 34 -30 8 -58 20 -62 28
-4 7 -38 31 -76 53 -37 22 -87 61 -110 86 -69 75 -58 127 53 236 64 63 72 84
56 152 -18 82 -15 114 16 138 24 19 38 21 93 18 54 -3 86 -14 190 -63 115 -55
131 -59 196 -60 45 0 77 5 87 13 15 13 14 17 -8 50 -44 64 -34 89 56 145 31
20 76 59 99 87 62 74 71 76 211 41 139 -36 213 -70 233 -110 15 -28 47 -41
103 -41 37 0 81 -30 93 -64 6 -17 13 -71 17 -121 5 -76 11 -100 40 -155 29
-56 33 -70 27 -110 -9 -58 -26 -93 -64 -122 l-30 -23 67 -54 c90 -71 147 -98
235 -112 73 -11 262 -8 275 5 4 3 -9 19 -28 35 l-34 29 41 41 42 41 -43 0
c-46 0 -69 18 -80 62 l-7 26 -34 -20 -34 -20 -34 29 c-19 18 -50 33 -74 37
-51 8 -74 38 -74 99 0 63 32 121 118 218 100 112 129 172 129 266 0 39 -3 75
-7 79 -14 14 -48 -29 -65 -83 -23 -72 -44 -93 -85 -87 -28 5 -36 1 -55 -24
-24 -33 -65 -45 -89 -27 -14 10 -16 25 -12 88 5 83 -2 100 -39 91 -78 -21 -94
113 -20 171 18 14 68 41 111 60 73 32 146 86 146 108 0 6 -29 7 -73 3 -55 -5
-77 -3 -92 8 -25 18 -17 35 71 169 36 53 77 122 91 153 l26 57 -27 51 c-14 28
-37 71 -51 95 -14 24 -25 58 -25 75 0 72 69 146 136 146 28 0 38 -6 59 -40 28
-45 28 -45 95 10 25 21 68 49 96 63 30 15 70 48 95 78 58 69 140 154 160 165
12 7 22 86 53 414 54 579 96 961 142 1295 48 356 37 584 -39 765 -18 42 -200
389 -406 771 l-375 696 -60 -25 c-55 -24 -77 -26 -227 -30 -91 -2 -229 1 -305
8 -254 22 -303 23 -382 9 -114 -19 -249 -17 -292 5 -84 44 -154 140 -236 328
-66 152 -111 195 -319 310 -114 63 -132 82 -101 107 7 6 16 27 19 47 8 47 23
64 57 64 32 0 45 -13 56 -54 6 -26 10 -28 44 -23 46 6 113 49 129 83 6 13 14
44 17 67 4 23 15 59 25 79 11 21 19 46 19 57 0 21 -67 84 -169 159 -86 63
-108 93 -93 127 23 49 112 27 277 -69 116 -69 175 -98 175 -89 0 5 -9 23 -20
41 -35 57 -19 92 44 92 44 0 56 10 56 47 0 63 -34 83 -224 127 -37 9 -84 26
-103 37 -72 45 -85 156 -22 189 25 14 66 -9 78 -43 7 -19 10 -17 28 23 35 79
71 90 96 28 l13 -32 23 50 c43 92 95 124 152 94 25 -14 53 -71 68 -140 19 -86
22 -89 38 -35 34 118 36 148 40 653 l4 512 -2726 0 -2725 0 0 -5241z"/>
</g>
</svg>
