<?xml version="1.0" standalone="no"?>
<!DOCTYPE svg PUBLIC "-//W3C//DTD SVG 20010904//EN"
 "http://www.w3.org/TR/2001/REC-SVG-20010904/DTD/svg10.dtd">
<svg version="1.0" xmlns="http://www.w3.org/2000/svg"
 width="2400.000000pt" height="2090.000000pt" viewBox="0 0 2400.000000 2090.000000"
 preserveAspectRatio="xMidYMid meet">
<metadata>
Created by potrace 1.16, written by Peter Selinger 2001-2019
</metadata>
<g transform="translate(0.000000,2090.000000) scale(0.100000,-0.100000)"
fill="#000000" stroke="none">
<path d="M11890 3640 c-19 -10 -65 -49 -103 -87 l-67 -69 20 -60 c12 -34 29
-70 38 -80 37 -42 63 -85 68 -114 l7 -30 102 0 c92 0 103 -2 123 -22 25 -28
42 -70 42 -107 0 -42 47 -98 171 -206 137 -118 170 -159 199 -250 23 -72 63
-186 83 -240 7 -16 12 -60 12 -96 0 -60 -3 -71 -33 -110 -18 -24 -50 -79 -72
-121 -22 -42 -52 -92 -68 -110 -45 -53 -62 -81 -62 -104 0 -33 46 -82 90 -95
33 -10 43 -9 72 8 80 46 198 243 222 371 7 37 19 77 27 90 19 30 71 46 129 39
56 -7 61 1 80 104 14 76 1 142 -38 188 -15 17 -63 55 -107 84 -75 49 -80 55
-83 90 -2 23 4 54 16 77 l19 38 -126 73 c-206 119 -206 119 -227 257 -8 57
-20 95 -38 122 -63 96 -300 319 -386 362 -43 22 -66 22 -110 -2z"/>
</g>
</svg>
