<?xml version="1.0" standalone="no"?>
<!DOCTYPE svg PUBLIC "-//W3C//DTD SVG 20010904//EN"
 "http://www.w3.org/TR/2001/REC-SVG-20010904/DTD/svg10.dtd">
<svg version="1.0" xmlns="http://www.w3.org/2000/svg"
 width="2400.000000pt" height="2090.000000pt" viewBox="0 0 2400.000000 2090.000000"
 preserveAspectRatio="xMidYMid meet">
<metadata>
Created by potrace 1.16, written by Peter Selinger 2001-2019
</metadata>
<g transform="translate(0.000000,2090.000000) scale(0.100000,-0.100000)"
fill="#000000" stroke="none">
<path d="M15501 19514 c-21 -26 -23 -35 -41 -159 -15 -96 -28 -141 -46 -160
-48 -48 -86 21 -65 121 14 73 14 141 0 150 -21 13 -48 -40 -101 -201 -53 -159
-77 -208 -111 -229 -40 -24 -55 68 -26 158 5 16 12 66 15 111 8 98 -2 125 -47
125 -42 0 -66 -14 -129 -80 -32 -33 -104 -86 -175 -130 -66 -40 -159 -106
-207 -147 -182 -154 -306 -210 -530 -238 -58 -8 -100 -40 -132 -104 -35 -67
-59 -86 -117 -87 -57 -1 -78 -16 -120 -89 -35 -61 -36 -83 -4 -110 14 -11 28
-35 31 -52 6 -31 1 -38 -68 -105 -103 -100 -495 -626 -583 -783 -17 -29 -95
-116 -190 -210 -180 -178 -193 -195 -307 -403 -45 -81 -122 -217 -173 -302
-161 -270 -199 -357 -188 -435 7 -53 -6 -62 -59 -44 -37 12 -44 11 -86 -12
-57 -29 -208 -177 -251 -244 -22 -35 -31 -61 -31 -91 0 -24 -6 -47 -15 -54 -8
-7 -48 -16 -89 -21 -93 -10 -169 -45 -238 -108 -115 -105 -165 -122 -220 -76
-16 14 -35 25 -41 25 -22 -1 -95 -38 -118 -61 l-22 -22 39 -33 c39 -33 39 -33
19 -53 -13 -12 -51 -25 -104 -35 -47 -9 -92 -22 -100 -31 -13 -13 -13 -18 7
-42 67 -84 55 -101 -57 -77 -68 15 -87 15 -122 5 -89 -27 -153 -85 -243 -219
-95 -144 -156 -327 -193 -580 -22 -155 -16 -186 47 -222 76 -44 114 -127 74
-161 -8 -7 -45 -15 -82 -19 l-67 -6 40 -12 c98 -29 145 -107 89 -151 -29 -23
-40 -27 -107 -36 -66 -9 -87 -32 -87 -95 0 -62 13 -69 77 -45 58 22 148 24
188 5 24 -12 31 -22 33 -52 4 -46 -28 -82 -133 -151 -38 -25 -76 -56 -83 -68
-60 -97 -63 -119 -31 -185 31 -66 166 -186 257 -231 72 -36 81 -38 172 -38 85
0 101 3 160 31 36 17 117 66 180 109 63 43 162 101 220 128 58 27 133 62 167
78 34 16 91 56 128 89 36 33 74 60 84 60 46 0 113 -94 127 -178 6 -39 7 -40
65 -52 46 -10 62 -10 73 -1 18 15 42 86 102 306 119 437 135 518 131 670 -2
110 5 131 68 210 88 109 97 184 65 510 -39 386 44 831 177 958 33 31 118 64
195 75 63 9 70 20 93 138 19 99 52 187 132 347 78 157 78 156 114 295 35 140
70 207 166 318 139 163 180 237 297 531 149 379 214 473 326 473 31 0 31 0 25
43 -5 34 -2 48 17 77 34 51 101 71 265 77 l131 6 31 123 c51 204 74 252 142
293 51 31 94 26 190 -20 176 -85 306 -119 458 -119 158 0 185 24 224 191 14
63 31 140 37 172 36 182 234 249 431 145 84 -44 163 -119 196 -186 37 -76 37
-147 -1 -264 -28 -86 -29 -118 -3 -118 20 0 128 131 182 221 49 81 139 292
126 297 -4 1 -38 -9 -74 -23 -93 -35 -110 -33 -165 18 -26 24 -64 54 -84 66
-41 24 -50 54 -20 69 9 5 53 17 97 27 167 36 230 98 174 169 -28 35 -175 105
-235 112 -71 7 -93 -8 -139 -101 -37 -73 -43 -80 -70 -80 -23 0 -33 7 -44 30
-12 26 -12 43 3 135 9 58 16 111 16 118 0 16 -59 52 -87 52 -12 0 -31 -12 -42
-26z"/>
</g>
</svg>
