<?xml version="1.0" standalone="no"?>
<!DOCTYPE svg PUBLIC "-//W3C//DTD SVG 20010904//EN"
 "http://www.w3.org/TR/2001/REC-SVG-20010904/DTD/svg10.dtd">
<svg version="1.0" xmlns="http://www.w3.org/2000/svg"
 width="2400.000000pt" height="2090.000000pt" viewBox="0 0 2400.000000 2090.000000"
 preserveAspectRatio="xMidYMid meet">
<metadata>
Created by potrace 1.16, written by Peter Selinger 2001-2019
</metadata>
<g transform="translate(0.000000,2090.000000) scale(0.100000,-0.100000)"
fill="#000000" stroke="none">
<path d="M10340 14940 c-19 -4 -224 -49 -455 -98 -621 -134 -629 -136 -920
-234 -252 -85 -464 -189 -625 -309 -44 -33 -162 -133 -262 -222 -266 -238
-334 -293 -428 -344 -151 -82 -287 -183 -274 -205 3 -4 65 -8 137 -8 83 0 152
-6 187 -15 83 -22 179 -73 227 -121 38 -38 43 -49 43 -87 0 -61 -48 -132 -192
-283 -184 -194 -248 -287 -248 -362 0 -59 26 -135 91 -265 33 -65 66 -144 75
-176 13 -54 13 -63 -2 -102 -22 -55 -29 -188 -15 -265 15 -79 58 -167 118
-239 27 -33 60 -77 73 -98 32 -53 60 -168 60 -244 0 -88 -19 -123 -68 -123
-41 0 -35 -27 19 -92 126 -152 126 -236 -1 -313 -84 -51 -61 -79 69 -88 101
-7 230 -45 278 -80 68 -50 78 -72 78 -172 0 -81 -3 -95 -30 -144 -40 -72 -98
-121 -271 -227 -163 -100 -222 -141 -238 -166 -16 -27 25 -61 119 -98 44 -17
88 -39 98 -47 19 -18 22 -44 6 -60 -7 -7 5 -31 42 -79 28 -38 55 -72 58 -76 4
-4 31 -1 61 6 30 7 84 18 120 24 215 37 309 57 428 93 234 69 244 79 346 322
84 199 97 224 172 318 57 72 127 128 194 157 l44 18 32 255 c17 140 41 290 53
334 87 339 303 607 565 704 71 26 130 32 340 34 l159 2 19 90 c10 50 29 135
44 191 l25 100 -45 77 c-106 179 -126 276 -106 510 7 85 9 152 4 156 -5 5 -24
13 -42 19 -102 34 -286 200 -315 284 -34 102 21 200 160 287 61 38 105 86 101
110 -8 42 -106 53 -188 21 -28 -11 -57 -20 -65 -20 -31 0 -55 38 -55 85 0 85
42 125 131 125 27 0 90 37 96 57 9 26 -82 83 -131 83 -15 0 -29 7 -33 16 -10
28 22 46 91 51 37 3 71 12 77 19 16 19 -17 73 -62 101 -66 43 -71 49 -79 93
-22 119 63 502 148 663 15 29 28 55 30 60 4 8 -20 8 -68 -3z"/>
</g>
</svg>
