<?xml version="1.0" standalone="no"?>
<!DOCTYPE svg PUBLIC "-//W3C//DTD SVG 20010904//EN"
 "http://www.w3.org/TR/2001/REC-SVG-20010904/DTD/svg10.dtd">
<svg version="1.0" xmlns="http://www.w3.org/2000/svg"
 width="2400.000000pt" height="2090.000000pt" viewBox="0 0 2400.000000 2090.000000"
 preserveAspectRatio="xMidYMid meet">
<metadata>
Created by potrace 1.16, written by Peter Selinger 2001-2019
</metadata>
<g transform="translate(0.000000,2090.000000) scale(0.100000,-0.100000)"
fill="#000000" stroke="none">
<path d="M5580 20330 l0 -470 24 -10 c61 -23 88 -97 87 -240 0 -117 -16 -165
-67 -198 -43 -28 -69 -69 -94 -151 -33 -105 -28 -110 51 -57 82 57 114 56 121
-2 2 -21 8 -26 23 -24 38 6 70 40 112 118 52 100 67 114 115 114 l38 0 0 -101
0 -100 28 19 c33 23 87 42 119 42 33 0 70 -40 83 -91 16 -64 31 -99 42 -99 5
0 24 11 42 25 18 14 43 25 56 25 12 0 31 -11 42 -25 19 -24 23 -25 141 -25
249 -1 336 -31 390 -135 29 -58 36 -93 49 -260 16 -196 16 -340 0 -392 -18
-61 -107 -152 -213 -218 l-89 -57 49 -91 c339 -627 662 -1232 702 -1312 73
-148 90 -226 96 -435 5 -157 1 -206 -31 -475 -19 -165 -40 -331 -46 -370 -16
-105 -98 -938 -123 -1240 -2 -27 1 -30 39 -36 23 -4 66 -15 95 -24 30 -9 107
-27 171 -40 109 -22 178 -48 178 -67 0 -21 34 5 202 156 101 90 208 184 238
208 246 198 571 342 1056 469 98 25 804 180 1048 229 l89 18 67 74 c107 117
204 155 310 124 73 -22 76 -21 46 15 -32 38 -34 82 -4 103 11 8 54 20 93 27
96 15 106 22 73 48 -53 42 -35 86 50 130 58 30 109 28 144 -6 27 -26 29 -26
61 -11 18 9 57 38 87 65 108 97 163 126 270 138 85 10 90 12 90 49 0 56 48
133 144 230 116 118 169 150 235 144 l49 -5 4 68 c6 85 38 152 180 389 58 96
138 236 178 310 111 205 140 242 314 415 123 122 172 178 205 235 78 134 495
696 554 746 19 16 44 37 56 46 29 24 26 52 -9 88 -37 38 -37 52 1 128 41 83
77 112 138 112 54 0 74 16 109 86 23 46 72 92 105 99 12 2 56 9 97 15 160 23
294 87 443 211 56 47 161 123 234 168 89 55 146 98 173 131 l40 48 -16 124
c-13 99 -15 169 -10 358 7 226 30 697 41 828 l6 62 -4711 0 -4710 0 0 -470z"/>
</g>
</svg>
