<?xml version="1.0" standalone="no"?>
<!DOCTYPE svg PUBLIC "-//W3C//DTD SVG 20010904//EN"
 "http://www.w3.org/TR/2001/REC-SVG-20010904/DTD/svg10.dtd">
<svg version="1.0" xmlns="http://www.w3.org/2000/svg"
 width="2400.000000pt" height="2090.000000pt" viewBox="0 0 2400.000000 2090.000000"
 preserveAspectRatio="xMidYMid meet">
<metadata>
Created by potrace 1.16, written by Peter Selinger 2001-2019
</metadata>
<g transform="translate(0.000000,2090.000000) scale(0.100000,-0.100000)"
fill="#000000" stroke="none">
<path d="M9612 6388 c-35 -17 -84 -33 -108 -36 -43 -4 -152 12 -185 29 -12 6
-21 -1 -37 -30 -12 -21 -22 -45 -22 -53 0 -8 20 -40 44 -71 24 -31 47 -72 50
-90 7 -36 -5 -80 -24 -92 -7 -4 -25 -28 -41 -53 -38 -60 -38 -108 1 -190 39
-84 45 -124 26 -202 -18 -76 -20 -140 -6 -192 12 -42 62 -112 100 -139 24 -18
28 -18 85 -3 78 21 99 32 181 99 138 114 291 160 385 117 24 -11 68 -41 98
-66 60 -52 135 -106 148 -106 4 0 31 38 59 84 l51 83 -46 64 c-43 60 -46 68
-49 139 -7 142 70 305 201 427 l63 58 -4 93 c-4 85 -6 92 -25 92 -11 0 -81 12
-155 26 -74 14 -145 23 -158 20 -17 -5 -34 -26 -59 -75 -73 -146 -131 -147
-308 -3 -81 66 -145 102 -179 101 -13 0 -52 -14 -86 -31z"/>
</g>
</svg>
