<?xml version="1.0" standalone="no"?>
<!DOCTYPE svg PUBLIC "-//W3C//DTD SVG 20010904//EN"
 "http://www.w3.org/TR/2001/REC-SVG-20010904/DTD/svg10.dtd">
<svg version="1.0" xmlns="http://www.w3.org/2000/svg"
 width="2400.000000pt" height="2090.000000pt" viewBox="0 0 2400.000000 2090.000000"
 preserveAspectRatio="xMidYMid meet">
<metadata>
Created by potrace 1.16, written by Peter Selinger 2001-2019
</metadata>
<g transform="translate(0.000000,2090.000000) scale(0.100000,-0.100000)"
fill="#000000" stroke="none">
<path d="M2963 5966 c-45 -6 -84 -14 -86 -16 -3 -3 -17 -59 -32 -125 -15 -66
-43 -163 -62 -215 -75 -203 -292 -600 -386 -705 -30 -35 -72 -67 -108 -86 -83
-41 -142 -126 -187 -269 -27 -86 -33 -137 -22 -184 10 -46 22 -56 73 -56 98 0
118 -107 48 -256 -29 -60 -41 -100 -46 -155 -9 -95 -19 -118 -104 -237 -39
-55 -71 -107 -71 -116 0 -11 20 -26 56 -42 31 -13 80 -40 110 -59 146 -94 197
-106 305 -76 42 12 87 21 101 21 22 0 29 8 49 63 51 139 92 211 154 272 34 33
82 74 106 90 65 45 72 67 73 230 1 148 4 160 59 228 21 27 22 39 23 192 1 148
4 167 24 202 22 41 48 62 82 68 64 13 144 120 278 375 149 282 244 403 340
435 65 22 74 34 60 84 -27 101 -126 156 -315 176 -163 17 -266 57 -304 117
-36 59 -71 66 -218 44z"/>
</g>
</svg>
