<?xml version="1.0" standalone="no"?>
<!DOCTYPE svg PUBLIC "-//W3C//DTD SVG 20010904//EN"
 "http://www.w3.org/TR/2001/REC-SVG-20010904/DTD/svg10.dtd">
<svg version="1.0" xmlns="http://www.w3.org/2000/svg"
 width="2400.000000pt" height="2090.000000pt" viewBox="0 0 2400.000000 2090.000000"
 preserveAspectRatio="xMidYMid meet">
<metadata>
Created by potrace 1.16, written by Peter Selinger 2001-2019
</metadata>
<g transform="translate(0.000000,2090.000000) scale(0.100000,-0.100000)"
fill="#000000" stroke="none">
<path d="M14563 11283 c1 -177 -18 -257 -76 -320 -18 -20 -26 -22 -96 -16 -73
5 -78 4 -109 -22 -22 -19 -37 -44 -48 -83 -38 -134 -121 -211 -286 -266 -87
-29 -129 -24 -179 21 -50 45 -71 85 -67 126 4 39 -13 45 -127 46 -104 1 -168
-18 -376 -112 -273 -123 -588 -227 -689 -227 l-41 0 6 -62 c33 -344 50 -432
108 -561 36 -82 40 -99 39 -167 -1 -41 3 -87 9 -101 13 -34 69 -65 151 -84
134 -31 676 -49 695 -22 5 6 19 44 31 83 70 224 289 427 534 494 40 11 213 51
383 88 364 81 430 107 530 207 93 93 169 258 182 391 10 106 -30 248 -84 296
-24 22 -86 48 -115 48 -36 0 -140 53 -177 91 -19 19 -56 81 -83 139 -44 94
-89 160 -109 160 -4 0 -7 -66 -6 -147z"/>
</g>
</svg>
