<?xml version="1.0" standalone="no"?>
<!DOCTYPE svg PUBLIC "-//W3C//DTD SVG 20010904//EN"
 "http://www.w3.org/TR/2001/REC-SVG-20010904/DTD/svg10.dtd">
<svg version="1.0" xmlns="http://www.w3.org/2000/svg"
 width="2400.000000pt" height="2090.000000pt" viewBox="0 0 2400.000000 2090.000000"
 preserveAspectRatio="xMidYMid meet">
<metadata>
Created by potrace 1.16, written by Peter Selinger 2001-2019
</metadata>
<g transform="translate(0.000000,2090.000000) scale(0.100000,-0.100000)"
fill="#000000" stroke="none">
<path d="M11154 4540 c-124 -61 -148 -81 -284 -230 -56 -61 -60 -80 -27 -107
28 -22 134 -157 254 -323 89 -123 155 -190 222 -225 22 -11 75 -21 145 -26
131 -11 167 -21 210 -60 l33 -28 59 61 c32 33 80 70 106 83 l48 22 -40 31
c-21 18 -72 62 -112 99 -41 38 -132 119 -204 181 -71 61 -137 125 -147 141
-13 21 -17 52 -17 118 0 72 -5 99 -26 148 -14 33 -35 86 -46 118 -14 37 -26
57 -37 57 -9 0 -70 -27 -137 -60z"/>
</g>
</svg>
