<?xml version="1.0" standalone="no"?>
<!DOCTYPE svg PUBLIC "-//W3C//DTD SVG 20010904//EN"
 "http://www.w3.org/TR/2001/REC-SVG-20010904/DTD/svg10.dtd">
<svg version="1.0" xmlns="http://www.w3.org/2000/svg"
 width="2400.000000pt" height="2090.000000pt" viewBox="0 0 2400.000000 2090.000000"
 preserveAspectRatio="xMidYMid meet">
<metadata>
Created by potrace 1.16, written by Peter Selinger 2001-2019
</metadata>
<g transform="translate(0.000000,2090.000000) scale(0.100000,-0.100000)"
fill="#000000" stroke="none">
<path d="M9580 9343 c-20 -93 -56 -180 -126 -306 l-66 -118 42 -127 c35 -103
44 -145 47 -222 5 -88 3 -98 -19 -130 -13 -19 -35 -41 -49 -47 -21 -10 -28
-24 -39 -81 -11 -61 -11 -75 5 -123 28 -84 63 -150 150 -276 3 -5 149 40 194
59 59 25 91 56 143 137 135 215 166 255 265 343 82 72 162 107 285 124 107 15
178 45 247 104 32 27 32 29 13 39 -12 6 -46 44 -76 85 -69 91 -232 249 -328
317 -109 76 -190 114 -412 189 -110 37 -214 73 -229 79 -16 6 -30 11 -31 11
-2 0 -9 -26 -16 -57z"/>
</g>
</svg>
