<?xml version="1.0" standalone="no"?>
<!DOCTYPE svg PUBLIC "-//W3C//DTD SVG 20010904//EN"
 "http://www.w3.org/TR/2001/REC-SVG-20010904/DTD/svg10.dtd">
<svg version="1.0" xmlns="http://www.w3.org/2000/svg"
 width="2400.000000pt" height="2090.000000pt" viewBox="0 0 2400.000000 2090.000000"
 preserveAspectRatio="xMidYMid meet">
<metadata>
Created by potrace 1.16, written by Peter Selinger 2001-2019
</metadata>
<g transform="translate(0.000000,2090.000000) scale(0.100000,-0.100000)"
fill="#000000" stroke="none">
<path d="M16551 7338 c-5 -13 -13 -74 -18 -136 -12 -142 -31 -172 -148 -243
-130 -78 -159 -127 -116 -192 10 -16 86 -97 168 -180 83 -84 159 -170 170
-192 57 -113 26 -282 -70 -378 -88 -88 -289 -155 -812 -272 -307 -68 -387
-105 -505 -235 l-81 -88 24 -93 c12 -51 29 -96 37 -100 8 -4 40 -19 71 -33 42
-19 61 -35 78 -67 14 -25 36 -46 55 -54 120 -50 793 -71 991 -31 39 8 105 28
148 46 114 45 230 68 423 82 150 10 189 10 307 -5 74 -9 159 -25 188 -36 29
-11 54 -19 56 -17 2 2 11 72 19 155 23 248 35 280 148 390 84 82 109 133 114
230 4 68 3 73 -14 68 -206 -61 -328 -82 -383 -67 -94 25 -176 142 -208 295
-14 70 -14 95 -3 203 14 135 9 207 -19 282 -22 58 -249 403 -332 505 -64 77
-132 134 -200 164 -57 27 -78 26 -88 -1z"/>
</g>
</svg>
