<?xml version="1.0" standalone="no"?>
<!DOCTYPE svg PUBLIC "-//W3C//DTD SVG 20010904//EN"
 "http://www.w3.org/TR/2001/REC-SVG-20010904/DTD/svg10.dtd">
<svg version="1.0" xmlns="http://www.w3.org/2000/svg"
 width="2400.000000pt" height="2090.000000pt" viewBox="0 0 2400.000000 2090.000000"
 preserveAspectRatio="xMidYMid meet">
<metadata>
Created by potrace 1.16, written by Peter Selinger 2001-2019
</metadata>
<g transform="translate(0.000000,2090.000000) scale(0.100000,-0.100000)"
fill="#000000" stroke="none">
<path d="M14289 5465 c-91 -65 -119 -78 -163 -73 -23 3 -61 17 -83 32 -32 21
-46 25 -60 18 -24 -13 -78 -105 -94 -159 -12 -41 -11 -46 24 -113 47 -88 50
-151 11 -243 -55 -129 -65 -211 -40 -317 29 -121 79 -173 320 -333 185 -122
222 -161 251 -261 20 -68 35 -217 35 -349 0 -128 13 -187 47 -219 22 -21 33
-23 116 -22 81 1 110 7 237 48 80 25 181 53 225 62 44 8 86 17 94 20 9 3 -5
24 -43 63 -45 48 -56 66 -56 93 0 46 21 72 68 86 22 7 45 19 52 27 18 22 6
105 -31 221 -79 246 -78 351 4 425 36 34 39 40 34 74 -3 20 -33 83 -66 139
-33 55 -65 115 -71 131 -23 58 -28 137 -14 193 20 77 17 174 -8 279 l-21 91
-81 0 c-45 0 -170 6 -280 15 l-198 16 -80 40 c-44 23 -84 41 -88 41 -4 0 -22
-11 -41 -25z"/>
</g>
</svg>
