<?xml version="1.0" standalone="no"?>
<!DOCTYPE svg PUBLIC "-//W3C//DTD SVG 20010904//EN"
 "http://www.w3.org/TR/2001/REC-SVG-20010904/DTD/svg10.dtd">
<svg version="1.0" xmlns="http://www.w3.org/2000/svg"
 width="2400.000000pt" height="2090.000000pt" viewBox="0 0 2400.000000 2090.000000"
 preserveAspectRatio="xMidYMid meet">
<metadata>
Created by potrace 1.16, written by Peter Selinger 2001-2019
</metadata>
<g transform="translate(0.000000,2090.000000) scale(0.100000,-0.100000)"
fill="#000000" stroke="none">
<path d="M20228 10328 c-33 -11 -96 -129 -129 -241 -38 -127 -77 -181 -169
-228 -65 -34 -249 -38 -415 -10 -232 39 -323 45 -395 27 -61 -16 -181 -73
-207 -99 -8 -9 -5 -41 13 -132 13 -66 27 -160 30 -210 6 -84 4 -95 -24 -165
-21 -52 -36 -114 -47 -200 -72 -547 -146 -838 -249 -979 -109 -148 -352 -317
-591 -411 -104 -41 -136 -67 -181 -143 -20 -34 -64 -100 -99 -147 -77 -105
-98 -139 -125 -213 -27 -72 -113 -162 -288 -302 -87 -69 -122 -103 -118 -114
3 -9 15 -43 27 -76 20 -53 22 -75 20 -190 -7 -272 -6 -298 14 -350 24 -63 41
-91 79 -132 27 -30 35 -33 85 -32 31 0 123 17 204 37 l148 37 25 75 c14 41 50
122 81 179 70 130 72 159 20 223 -66 81 -30 125 63 78 24 -12 46 -18 55 -13 7
5 36 40 64 79 83 119 169 171 325 199 150 26 244 17 267 -27 19 -36 -12 -54
-134 -78 l-58 -12 33 -22 c19 -12 34 -32 36 -46 5 -35 29 -59 87 -86 85 -40
227 -28 409 35 78 28 111 27 141 -4 32 -31 34 -91 5 -128 -12 -15 -47 -40 -79
-57 -32 -17 -73 -44 -93 -60 -39 -32 -103 -144 -94 -166 7 -18 37 -30 151 -58
170 -43 186 -62 178 -207 -5 -87 -3 -97 18 -128 33 -47 103 -84 150 -78 51 7
83 33 185 154 91 107 135 143 173 143 48 0 136 74 164 138 6 15 16 30 22 34 5
4 63 8 128 8 112 0 119 1 142 25 28 27 29 34 14 104 -24 112 -126 124 -219 26
-83 -87 -146 -87 -293 2 -32 19 -95 66 -140 105 -77 65 -117 89 -229 137 -35
14 -48 25 -48 40 0 27 24 41 140 86 145 55 282 147 455 304 155 142 267 208
615 365 115 52 189 96 360 214 68 46 100 62 125 62 29 0 36 -4 41 -25 16 -65
-45 -146 -176 -235 -36 -24 -113 -81 -173 -127 l-107 -84 17 -31 c28 -48 58
-62 125 -60 103 4 109 -19 47 -190 -96 -265 -109 -305 -109 -341 0 -61 -20
-123 -47 -149 -33 -31 -90 -30 -166 2 -71 30 -86 21 -69 -38 16 -53 36 -69
139 -107 48 -18 120 -45 158 -60 39 -15 117 -37 175 -50 113 -25 289 -79 410
-127 136 -53 250 -119 422 -245 159 -118 256 -164 386 -184 282 -43 342 -66
447 -171 178 -179 214 -315 129 -487 l-40 -81 154 -137 c197 -176 324 -272
437 -329 77 -39 96 -45 130 -40 114 17 248 18 333 1 48 -9 112 -15 142 -13
l55 3 2 1815 3 1815 -136 125 c-75 69 -157 140 -183 159 -70 51 -286 153 -466
219 -234 88 -343 131 -400 159 -182 93 -240 175 -284 407 -30 158 -56 194
-166 222 -190 50 -306 169 -527 541 -98 165 -169 247 -228 263 -19 5 -83 20
-143 32 -118 25 -100 27 -242 -30 -30 -12 -75 -16 -180 -16 -132 0 -146 2
-235 33 -52 18 -154 63 -225 100 -72 38 -155 76 -184 85 -62 18 -57 18 -93 4z"/>
</g>
</svg>
