<?xml version="1.0" standalone="no"?>
<!DOCTYPE svg PUBLIC "-//W3C//DTD SVG 20010904//EN"
 "http://www.w3.org/TR/2001/REC-SVG-20010904/DTD/svg10.dtd">
<svg version="1.0" xmlns="http://www.w3.org/2000/svg"
 width="2400.000000pt" height="2090.000000pt" viewBox="0 0 2400.000000 2090.000000"
 preserveAspectRatio="xMidYMid meet">
<metadata>
Created by potrace 1.16, written by Peter Selinger 2001-2019
</metadata>
<g transform="translate(0.000000,2090.000000) scale(0.100000,-0.100000)"
fill="#000000" stroke="none">
<path d="M12535 9412 c-105 -102 -173 -124 -603 -197 -84 -15 -171 -32 -193
-38 l-39 -12 78 -228 c70 -207 79 -227 97 -222 78 23 419 107 503 125 124 26
181 22 271 -20 86 -41 134 -76 237 -172 105 -99 187 -162 234 -182 19 -8 73
-23 121 -34 47 -12 122 -37 168 -57 154 -68 219 -77 336 -46 83 21 121 40 154
75 27 29 35 14 -74 146 -103 124 -156 196 -203 275 -83 141 -140 325 -145 467
l-3 83 -300 6 c-213 4 -321 11 -376 22 -82 17 -161 47 -172 66 -11 18 -17 14
-91 -57z"/>
</g>
</svg>
