<?xml version="1.0" standalone="no"?>
<!DOCTYPE svg PUBLIC "-//W3C//DTD SVG 20010904//EN"
 "http://www.w3.org/TR/2001/REC-SVG-20010904/DTD/svg10.dtd">
<svg version="1.0" xmlns="http://www.w3.org/2000/svg"
 width="2400.000000pt" height="2090.000000pt" viewBox="0 0 2400.000000 2090.000000"
 preserveAspectRatio="xMidYMid meet">
<metadata>
Created by potrace 1.16, written by Peter Selinger 2001-2019
</metadata>
<g transform="translate(0.000000,2090.000000) scale(0.100000,-0.100000)"
fill="#000000" stroke="none">
<path d="M11539 13344 c-54 -56 -106 -88 -258 -158 -85 -39 -191 -98 -262
-145 -180 -122 -272 -161 -375 -161 l-41 0 -7 -47 c-3 -27 -9 -111 -12 -189
-6 -128 -5 -146 15 -210 19 -59 76 -176 102 -210 6 -7 25 5 57 36 45 43 57 49
158 74 114 29 206 68 364 155 107 59 137 62 159 17 20 -42 30 -147 20 -202 -5
-27 -23 -71 -41 -99 -60 -96 -88 -150 -88 -176 0 -33 34 -79 98 -130 50 -39
52 -43 52 -90 0 -28 5 -49 11 -49 6 0 95 -15 197 -34 253 -46 262 -47 262 -33
0 6 11 23 25 37 22 23 24 29 13 58 -11 28 -10 34 11 56 33 36 26 77 -52 276
-82 210 -106 287 -152 490 -21 91 -53 210 -71 265 -30 88 -34 111 -33 195 0
52 0 113 0 134 -3 72 -62 176 -101 176 -9 0 -32 -16 -51 -36z"/>
</g>
</svg>
