<?xml version="1.0" standalone="no"?>
<!DOCTYPE svg PUBLIC "-//W3C//DTD SVG 20010904//EN"
 "http://www.w3.org/TR/2001/REC-SVG-20010904/DTD/svg10.dtd">
<svg version="1.0" xmlns="http://www.w3.org/2000/svg"
 width="2400.000000pt" height="2090.000000pt" viewBox="0 0 2400.000000 2090.000000"
 preserveAspectRatio="xMidYMid meet">
<metadata>
Created by potrace 1.16, written by Peter Selinger 2001-2019
</metadata>
<g transform="translate(0.000000,2090.000000) scale(0.100000,-0.100000)"
fill="#000000" stroke="none">
<path d="M22045 3730 c-43 -45 -114 -78 -192 -90 -37 -5 -165 -10 -283 -10
-240 0 -300 -9 -403 -61 -120 -61 -214 -134 -387 -304 -201 -196 -240 -230
-330 -278 -159 -87 -305 -112 -460 -79 -341 73 -332 72 -377 62 -30 -7 -103
-51 -231 -139 -103 -71 -228 -152 -278 -180 -105 -60 -268 -121 -321 -121 -19
0 -78 12 -131 26 -129 35 -229 37 -297 6 -78 -36 -132 -43 -204 -26 -34 7 -76
21 -93 30 -43 22 -104 21 -172 -5 -74 -28 -223 -42 -314 -31 -94 12 -152 36
-250 103 -46 31 -93 57 -106 57 -23 0 -67 -41 -125 -117 l-32 -42 30 -48 c47
-76 48 -95 12 -152 l-32 -49 16 -60 c23 -91 21 -97 -40 -143 -30 -23 -55 -45
-55 -49 0 -8 47 -27 123 -50 41 -13 100 -59 120 -94 7 -13 12 -62 12 -126 0
-86 4 -111 18 -134 13 -20 23 -25 35 -20 9 4 31 9 48 11 27 4 34 0 53 -30 28
-45 27 -71 -6 -113 -22 -30 -24 -37 -12 -45 8 -5 23 -8 34 -5 11 2 74 16 140
30 167 38 218 29 202 -35 -6 -24 -48 -92 -89 -141 -12 -15 -19 -30 -17 -33 13
-13 75 18 109 55 31 34 43 40 77 40 23 0 71 -9 109 -21 48 -15 80 -19 111 -14
48 7 56 1 151 -113 60 -73 107 -95 213 -100 77 -4 92 -1 163 27 43 17 86 31
97 31 31 0 57 55 70 153 23 169 83 237 210 237 146 0 266 -46 558 -215 76 -44
151 -80 181 -86 65 -14 157 0 303 47 199 65 235 92 357 269 119 174 155 201
254 192 34 -3 89 -17 123 -31 79 -33 132 -34 160 -3 12 12 40 57 63 99 41 76
88 128 115 128 8 0 19 -9 25 -20 6 -11 14 -20 18 -20 12 0 97 146 143 244 22
50 49 126 60 170 34 143 65 203 144 281 85 85 172 137 285 171 46 14 136 52
200 84 113 57 205 92 328 125 l62 18 0 84 c0 130 -31 180 -168 273 -58 39 -70
53 -89 100 -25 61 -29 140 -12 219 6 28 9 60 7 71 -3 20 -5 20 -33 -10z"/>
</g>
</svg>
