<?xml version="1.0" standalone="no"?>
<!DOCTYPE svg PUBLIC "-//W3C//DTD SVG 20010904//EN"
 "http://www.w3.org/TR/2001/REC-SVG-20010904/DTD/svg10.dtd">
<svg version="1.0" xmlns="http://www.w3.org/2000/svg"
 width="2400.000000pt" height="2090.000000pt" viewBox="0 0 2400.000000 2090.000000"
 preserveAspectRatio="xMidYMid meet">
<metadata>
Created by potrace 1.16, written by Peter Selinger 2001-2019
</metadata>
<g transform="translate(0.000000,2090.000000) scale(0.100000,-0.100000)"
fill="#000000" stroke="none">
<path d="M3467 6796 c-50 -18 -63 -31 -71 -66 -11 -56 -99 -63 -216 -16 -31
12 -60 18 -65 14 -6 -4 -37 -28 -71 -53 -93 -68 -101 -93 -86 -263 13 -149 7
-212 -29 -305 -11 -27 -18 -52 -15 -54 2 -2 39 1 83 7 127 17 218 -9 253 -74
23 -44 101 -74 240 -91 131 -17 197 -33 249 -59 83 -44 147 -134 158 -225 9
-78 -26 -125 -110 -145 -40 -9 -119 -86 -173 -167 -25 -38 -78 -131 -119 -208
-157 -299 -232 -399 -327 -435 -63 -24 -71 -48 -62 -196 7 -134 -1 -178 -52
-260 l-34 -55 0 -133 c0 -181 -14 -212 -130 -292 -103 -71 -144 -130 -201
-293 -22 -63 -23 -69 -7 -78 45 -25 121 -94 161 -146 85 -112 112 -189 126
-366 12 -139 24 -167 95 -215 76 -51 90 -51 177 -4 86 46 128 52 199 27 60
-21 104 -19 201 11 62 19 108 26 179 27 105 2 147 -9 285 -74 112 -52 217 -83
263 -75 111 18 117 17 191 -8 41 -14 87 -26 101 -26 34 0 98 46 141 101 41 51
136 114 201 134 27 8 97 19 156 25 174 18 168 16 201 63 16 24 61 78 99 120
39 43 92 110 119 149 50 76 98 110 173 123 53 9 103 24 119 34 11 7 8 17 -18
49 -39 50 -60 99 -71 167 -13 78 3 129 61 199 28 34 91 126 140 206 76 124 98
151 147 186 31 23 72 62 90 88 39 54 76 76 130 76 39 0 39 1 45 43 12 86 77
113 357 148 203 25 242 33 347 75 247 99 346 167 394 268 16 34 29 66 29 73 0
7 -24 14 -57 18 -81 9 -117 21 -201 67 -58 31 -278 165 -387 236 -11 7 -60 32
-109 57 -79 40 -97 45 -156 45 -86 0 -176 31 -339 116 -245 128 -387 242 -511
412 l-65 89 -64 12 c-79 15 -126 38 -171 86 -44 46 -60 53 -168 65 -73 8 -104
18 -192 61 -58 28 -141 62 -185 76 -117 37 -174 62 -330 148 -264 145 -332
175 -565 250 -156 50 -184 66 -265 150 -38 39 -80 77 -92 83 -29 16 -149 14
-196 -2z"/>
</g>
</svg>
