<?xml version="1.0" standalone="no"?>
<!DOCTYPE svg PUBLIC "-//W3C//DTD SVG 20010904//EN"
 "http://www.w3.org/TR/2001/REC-SVG-20010904/DTD/svg10.dtd">
<svg version="1.0" xmlns="http://www.w3.org/2000/svg"
 width="2400.000000pt" height="2090.000000pt" viewBox="0 0 2400.000000 2090.000000"
 preserveAspectRatio="xMidYMid meet">
<metadata>
Created by potrace 1.16, written by Peter Selinger 2001-2019
</metadata>
<g transform="translate(0.000000,2090.000000) scale(0.100000,-0.100000)"
fill="#000000" stroke="none">
<path d="M21360 20739 c129 -110 148 -155 115 -264 -14 -47 -14 -54 5 -118 24
-77 20 -102 -16 -111 -40 -10 -89 21 -149 95 -82 101 -99 95 -156 -61 -57
-156 -100 -208 -197 -236 -46 -13 -68 -28 -114 -74 -58 -60 -76 -100 -95 -215
-7 -41 -13 -52 -36 -63 -35 -17 -39 -28 -72 -188 -15 -71 -36 -163 -47 -204
-34 -124 -24 -182 73 -428 33 -84 32 -110 -4 -96 -26 10 -136 161 -167 230
-48 106 -63 199 -57 348 4 94 12 153 29 211 32 113 31 195 -6 261 -31 58 -62
80 -100 70 -57 -14 -72 -84 -53 -251 8 -75 -2 -108 -26 -90 -8 6 -27 19 -42
30 l-28 19 -39 -44 c-63 -71 -156 -215 -208 -324 -100 -209 -132 -341 -128
-521 2 -87 -1 -107 -21 -153 -55 -122 -214 -189 -354 -148 -98 28 -227 88
-257 118 -58 58 -33 154 65 252 56 55 57 58 52 101 -8 78 -84 155 -179 181
-32 9 -122 17 -224 21 -205 7 -213 3 -137 -66 120 -110 179 -236 204 -433 21
-170 54 -238 116 -238 64 0 124 -87 144 -208 13 -77 1 -205 -26 -267 l-15 -36
-69 7 c-87 8 -221 -10 -281 -39 -31 -15 -50 -33 -62 -57 -9 -19 -32 -69 -52
-110 -21 -45 -74 -124 -131 -195 -101 -128 -140 -195 -131 -229 8 -31 48 -70
131 -126 71 -48 97 -74 167 -169 50 -68 108 -93 232 -102 145 -10 209 -43 191
-99 -10 -31 -59 -33 -210 -8 -123 20 -171 22 -400 20 -307 -2 -327 1 -457 84
-107 68 -148 75 -181 31 -32 -42 -36 -141 -8 -196 25 -47 84 -116 115 -134 12
-6 55 -14 98 -17 88 -7 125 -29 183 -108 52 -71 54 -98 14 -137 -19 -18 -44
-45 -57 -60 -20 -24 -27 -27 -62 -21 -22 3 -117 37 -212 75 -95 38 -211 79
-257 91 -105 29 -140 58 -191 161 -22 42 -71 121 -111 175 -94 129 -99 143
-99 262 0 178 -30 229 -155 266 -75 23 -111 44 -194 118 -36 32 -94 73 -129
90 -97 49 -212 183 -212 248 0 27 38 44 71 31 14 -5 48 -28 75 -52 78 -67 119
-81 217 -73 77 6 86 5 134 -20 61 -32 194 -58 418 -80 340 -33 529 -30 607 10
51 26 180 161 236 247 57 87 84 153 102 245 19 97 10 145 -37 190 -22 22 -58
66 -79 98 -100 152 -174 190 -644 334 -74 23 -233 82 -353 132 -283 116 -318
123 -507 106 -192 -17 -335 -16 -380 5 -69 30 -87 80 -35 93 58 14 74 87 25
111 -30 15 -128 17 -165 3 -14 -5 -30 -21 -35 -35 -5 -14 -19 -29 -31 -33 -15
-6 -34 -43 -73 -147 -67 -177 -120 -266 -249 -417 l-49 -58 12 -92 c17 -135
49 -214 130 -311 103 -126 101 -120 116 -372 16 -277 28 -359 77 -560 53 -213
266 -754 417 -1060 149 -302 190 -428 190 -584 0 -70 -4 -84 -40 -156 l-40
-79 2 -175 c2 -157 0 -185 -21 -257 -29 -105 -115 -280 -226 -464 -80 -133
-87 -148 -82 -185 4 -30 15 -48 42 -71 39 -34 77 -46 199 -63 64 -9 89 -18
133 -49 60 -40 90 -80 80 -106 -6 -14 -24 -16 -127 -15 l-120 1 -35 -31 c-24
-21 -46 -31 -68 -31 -18 0 -49 -5 -69 -11 -31 -8 -38 -15 -38 -34 0 -16 -13
-35 -40 -56 -22 -18 -40 -41 -40 -52 0 -30 -35 -80 -70 -101 -47 -27 -139 -31
-306 -11 -301 36 -506 2 -688 -112 l-38 -25 38 -39 c55 -57 118 -96 194 -121
59 -20 87 -22 315 -23 235 -1 253 -2 291 -22 57 -30 105 -87 158 -189 58 -114
103 -168 194 -234 77 -57 120 -112 151 -195 24 -63 51 -191 51 -240 l0 -35
133 0 c483 1 585 60 884 515 129 196 142 213 192 246 78 51 149 40 303 -48 87
-50 187 -80 222 -67 39 15 51 68 75 325 28 294 190 548 422 663 137 67 251 93
498 111 283 21 340 35 612 158 86 39 252 133 374 211 222 142 327 176 670 216
220 26 359 70 645 205 307 146 411 179 812 259 355 72 440 103 693 255 169
102 494 275 633 337 l82 37 0 2593 0 2594 -1315 0 -1316 0 71 -61z"/>
</g>
</svg>
