<?xml version="1.0" standalone="no"?>
<!DOCTYPE svg PUBLIC "-//W3C//DTD SVG 20010904//EN"
 "http://www.w3.org/TR/2001/REC-SVG-20010904/DTD/svg10.dtd">
<svg version="1.0" xmlns="http://www.w3.org/2000/svg"
 width="2400.000000pt" height="2090.000000pt" viewBox="0 0 2400.000000 2090.000000"
 preserveAspectRatio="xMidYMid meet">
<metadata>
Created by potrace 1.16, written by Peter Selinger 2001-2019
</metadata>
<g transform="translate(0.000000,2090.000000) scale(0.100000,-0.100000)"
fill="#000000" stroke="none">
<path d="M14275 18309 c-3 -8 -12 -45 -20 -83 -7 -38 -21 -76 -30 -85 -12 -13
-48 -17 -168 -22 -103 -4 -164 -11 -188 -22 l-37 -15 5 -66 c8 -88 -9 -109
-77 -100 -62 8 -83 -4 -129 -75 -40 -63 -69 -128 -160 -357 -96 -244 -177
-393 -274 -502 -102 -115 -145 -186 -167 -282 -31 -133 -54 -194 -125 -339
-85 -171 -120 -262 -131 -336 -10 -73 -42 -152 -70 -174 -13 -10 -54 -24 -91
-31 -75 -13 -128 -32 -157 -58 -29 -26 -81 -146 -105 -243 -52 -209 -61 -376
-35 -688 24 -290 3 -422 -81 -516 -58 -64 -60 -71 -61 -204 -1 -141 -17 -229
-91 -501 -24 -91 -50 -187 -58 -215 -56 -209 -85 -274 -137 -301 -31 -16 -71
-15 -152 3 l-29 6 5 -64 c4 -35 20 -106 37 -157 18 -51 50 -170 72 -265 39
-169 95 -344 178 -560 53 -137 61 -195 32 -221 -17 -15 -20 -26 -15 -58 6 -32
3 -43 -17 -64 -21 -22 -22 -28 -12 -72 6 -26 25 -85 42 -132 26 -72 31 -99 31
-177 0 -89 1 -93 26 -110 34 -22 163 -22 214 0 51 22 65 41 121 159 41 88 110
152 184 173 17 5 93 9 171 9 134 1 142 2 180 27 44 30 95 114 142 237 41 104
51 166 62 372 8 151 15 197 50 338 22 90 40 184 40 209 0 41 -4 50 -40 83 -65
60 -54 74 85 105 224 50 312 103 407 243 168 249 179 390 46 567 -29 38 -89
99 -132 135 -92 78 -121 122 -141 216 -36 170 -10 389 82 704 34 116 43 134
127 259 118 175 182 242 346 364 207 154 370 330 434 467 30 64 32 99 10 165
-32 93 -3 268 70 422 67 140 140 225 232 268 49 23 73 28 140 28 75 1 80 2 77
22 -2 11 -21 143 -44 294 -39 264 -80 455 -133 610 -64 186 -185 341 -401 514
-55 44 -108 87 -117 95 -15 12 -18 13 -23 1z"/>
</g>
</svg>
