<?xml version="1.0" standalone="no"?>
<!DOCTYPE svg PUBLIC "-//W3C//DTD SVG 20010904//EN"
 "http://www.w3.org/TR/2001/REC-SVG-20010904/DTD/svg10.dtd">
<svg version="1.0" xmlns="http://www.w3.org/2000/svg"
 width="2400.000000pt" height="2090.000000pt" viewBox="0 0 2400.000000 2090.000000"
 preserveAspectRatio="xMidYMid meet">
<metadata>
Created by potrace 1.16, written by Peter Selinger 2001-2019
</metadata>
<g transform="translate(0.000000,2090.000000) scale(0.100000,-0.100000)"
fill="#000000" stroke="none">
<path d="M12356 6750 c-27 -68 -78 -139 -112 -155 -28 -13 -39 -13 -105 1 -89
19 -245 14 -302 -9 -30 -13 -77 -66 -77 -87 0 -3 18 -12 39 -21 22 -9 47 -29
58 -45 27 -42 22 -150 -16 -318 -17 -77 -31 -156 -31 -176 0 -20 -13 -75 -29
-122 -24 -67 -28 -92 -21 -121 11 -53 57 -126 87 -140 24 -10 28 -8 59 27 18
20 52 77 76 124 36 72 49 90 81 105 46 23 62 14 78 -46 13 -49 1 -100 -39
-160 -41 -62 -38 -139 9 -237 43 -90 110 -166 227 -257 48 -37 141 -115 207
-174 67 -59 181 -146 255 -195 161 -104 211 -141 355 -260 112 -93 215 -169
387 -288 54 -36 125 -91 160 -121 35 -30 65 -55 68 -55 3 0 11 22 17 50 21 87
70 142 177 197 l50 25 -30 21 c-190 134 -252 385 -154 630 16 41 30 87 30 102
0 14 -14 53 -32 87 -45 86 -44 150 5 252 l36 76 -27 6 c-120 26 -152 58 -241
238 -79 160 -88 170 -195 210 -140 53 -224 121 -307 248 -47 73 -74 156 -97
299 -16 97 -19 104 -42 107 -50 8 -115 -22 -219 -99 -29 -21 -34 -22 -85 -10
-72 16 -98 42 -201 204 l-82 129 -17 -42z"/>
</g>
</svg>
