<?xml version="1.0" standalone="no"?>
<!DOCTYPE svg PUBLIC "-//W3C//DTD SVG 20010904//EN"
 "http://www.w3.org/TR/2001/REC-SVG-20010904/DTD/svg10.dtd">
<svg version="1.0" xmlns="http://www.w3.org/2000/svg"
 width="2400.000000pt" height="2090.000000pt" viewBox="0 0 2400.000000 2090.000000"
 preserveAspectRatio="xMidYMid meet">
<metadata>
Created by potrace 1.16, written by Peter Selinger 2001-2019
</metadata>
<g transform="translate(0.000000,2090.000000) scale(0.100000,-0.100000)"
fill="#000000" stroke="none">
<path d="M9630 1620 c-36 -4 -130 -20 -209 -36 l-144 -29 -75 -113 c-133 -202
-144 -266 -149 -894 l-5 -468 605 0 605 0 31 74 c105 252 77 417 -97 568 -112
97 -146 172 -123 271 16 72 60 129 164 212 100 81 137 132 137 190 0 78 -37
84 -131 23 -143 -93 -196 -112 -234 -85 -15 12 -18 26 -16 85 2 66 0 73 -30
107 -66 75 -183 108 -329 95z"/>
</g>
</svg>
