<?xml version="1.0" standalone="no"?>
<!DOCTYPE svg PUBLIC "-//W3C//DTD SVG 20010904//EN"
 "http://www.w3.org/TR/2001/REC-SVG-20010904/DTD/svg10.dtd">
<svg version="1.0" xmlns="http://www.w3.org/2000/svg"
 width="2400.000000pt" height="2090.000000pt" viewBox="0 0 2400.000000 2090.000000"
 preserveAspectRatio="xMidYMid meet">
<metadata>
Created by potrace 1.16, written by Peter Selinger 2001-2019
</metadata>
<g transform="translate(0.000000,2090.000000) scale(0.100000,-0.100000)"
fill="#000000" stroke="none">
<path d="M10423 5393 c-78 -126 -75 -117 -53 -145 34 -44 42 -79 51 -223 10
-169 34 -270 90 -375 39 -73 129 -203 209 -300 19 -23 40 -50 46 -59 7 -9 14
-14 16 -11 67 90 206 227 269 265 30 19 93 50 139 70 47 20 86 38 88 40 11 11
-98 178 -199 305 -116 147 -245 252 -414 338 -55 28 -123 72 -152 97 -28 25
-53 45 -56 45 -3 0 -18 -21 -34 -47z"/>
</g>
</svg>
