<?xml version="1.0" standalone="no"?>
<!DOCTYPE svg PUBLIC "-//W3C//DTD SVG 20010904//EN"
 "http://www.w3.org/TR/2001/REC-SVG-20010904/DTD/svg10.dtd">
<svg version="1.0" xmlns="http://www.w3.org/2000/svg"
 width="2400.000000pt" height="2090.000000pt" viewBox="0 0 2400.000000 2090.000000"
 preserveAspectRatio="xMidYMid meet">
<metadata>
Created by potrace 1.16, written by Peter Selinger 2001-2019
</metadata>
<g transform="translate(0.000000,2090.000000) scale(0.100000,-0.100000)"
fill="#000000" stroke="none">
<path d="M11995 7490 c-11 -5 -35 -9 -53 -9 -41 -1 -69 -15 -100 -52 -30 -37
-94 -74 -150 -89 -58 -15 -69 -39 -52 -122 35 -181 -5 -235 -143 -193 -120 36
-401 42 -702 14 -147 -14 -188 -5 -251 53 -36 33 -53 42 -93 46 l-49 4 5 -43
c10 -79 63 -158 205 -306 37 -39 76 -88 85 -110 25 -57 22 -167 -5 -220 -17
-34 -22 -60 -23 -145 -2 -118 10 -159 59 -200 65 -54 135 -45 234 30 87 66
102 90 104 163 2 76 21 104 94 141 82 41 145 51 360 54 l195 2 16 40 c20 47
58 78 113 93 54 15 259 15 314 0 24 -7 51 -9 62 -6 23 7 72 82 99 153 21 52
21 56 5 135 -21 110 -29 316 -15 392 6 32 23 81 37 108 14 27 24 50 22 52 -4
3 -291 25 -324 24 -16 0 -38 -4 -49 -9z"/>
</g>
</svg>
