<?xml version="1.0" standalone="no"?>
<!DOCTYPE svg PUBLIC "-//W3C//DTD SVG 20010904//EN"
 "http://www.w3.org/TR/2001/REC-SVG-20010904/DTD/svg10.dtd">
<svg version="1.0" xmlns="http://www.w3.org/2000/svg"
 width="2400.000000pt" height="2090.000000pt" viewBox="0 0 2400.000000 2090.000000"
 preserveAspectRatio="xMidYMid meet">
<metadata>
Created by potrace 1.16, written by Peter Selinger 2001-2019
</metadata>
<g transform="translate(0.000000,2090.000000) scale(0.100000,-0.100000)"
fill="#000000" stroke="none">
<path d="M10078 4734 c-16 -8 -40 -38 -54 -66 -25 -49 -25 -53 -13 -116 31
-165 -18 -405 -116 -563 -32 -52 -35 -64 -35 -132 0 -74 0 -75 30 -87 80 -33
104 -110 98 -310 -4 -131 -7 -143 -76 -390 -84 -301 -104 -362 -138 -413 l-25
-38 -62 6 c-62 6 -62 6 -111 -35 -27 -22 -55 -44 -62 -48 -11 -6 -8 -24 17
-87 17 -44 37 -107 45 -140 21 -93 17 -277 -11 -481 -14 -98 -25 -181 -25
-184 0 -3 60 -5 132 -5 115 -1 141 -4 191 -24 65 -26 120 -69 143 -113 10 -18
14 -50 12 -91 l-3 -62 30 -3 c23 -2 56 13 134 62 58 36 119 68 135 72 17 3 38
12 46 19 15 12 535 255 548 255 4 0 27 34 52 75 65 111 89 130 155 128 74 -2
237 -31 315 -55 56 -18 81 -20 180 -14 284 15 368 17 405 9 39 -9 40 -8 78 40
62 78 109 83 220 24 l58 -31 25 30 c13 16 41 60 60 99 20 38 52 89 70 114 52
67 48 109 -29 329 -39 111 -73 192 -90 212 -15 17 -76 74 -137 126 -134 116
-159 147 -177 227 -22 95 -25 97 -165 97 l-120 0 7 38 c5 29 2 42 -10 52 -18
15 -125 231 -125 252 0 19 -38 54 -75 68 -16 7 -78 16 -136 20 -180 12 -258
67 -418 294 -46 65 -153 202 -238 303 -176 210 -282 353 -323 433 l-28 55
-138 33 c-153 35 -205 39 -246 16z"/>
</g>
</svg>
