<?xml version="1.0" standalone="no"?>
<!DOCTYPE svg PUBLIC "-//W3C//DTD SVG 20010904//EN"
 "http://www.w3.org/TR/2001/REC-SVG-20010904/DTD/svg10.dtd">
<svg version="1.0" xmlns="http://www.w3.org/2000/svg"
 width="2400.000000pt" height="2090.000000pt" viewBox="0 0 2400.000000 2090.000000"
 preserveAspectRatio="xMidYMid meet">
<metadata>
Created by potrace 1.16, written by Peter Selinger 2001-2019
</metadata>
<g transform="translate(0.000000,2090.000000) scale(0.100000,-0.100000)"
fill="#000000" stroke="none">
<path d="M18265 9805 c-49 -7 -133 -22 -185 -33 -326 -69 -1468 -360 -1710
-437 -44 -13 -125 -36 -181 -50 -206 -52 -252 -114 -270 -364 -11 -158 -18
-190 -66 -294 l-36 -78 39 -40 c55 -57 145 -120 244 -169 102 -51 204 -145
261 -240 92 -155 161 -376 174 -557 l7 -91 51 -7 c67 -10 110 -28 183 -81 84
-60 142 -126 245 -284 114 -175 173 -260 179 -260 13 0 242 191 306 255 58 58
76 85 100 146 16 41 55 109 88 154 33 44 82 116 109 160 27 44 57 88 66 99 23
27 78 59 146 86 256 100 511 284 598 431 93 159 165 440 212 834 20 172 32
228 62 300 24 56 25 67 19 165 -4 58 -17 152 -29 210 l-23 104 -110 24 c-139
29 -352 37 -479 17z"/>
</g>
</svg>
