<?xml version="1.0" standalone="no"?>
<!DOCTYPE svg PUBLIC "-//W3C//DTD SVG 20010904//EN"
 "http://www.w3.org/TR/2001/REC-SVG-20010904/DTD/svg10.dtd">
<svg version="1.0" xmlns="http://www.w3.org/2000/svg"
 width="2400.000000pt" height="2090.000000pt" viewBox="0 0 2400.000000 2090.000000"
 preserveAspectRatio="xMidYMid meet">
<metadata>
Created by potrace 1.16, written by Peter Selinger 2001-2019
</metadata>
<g transform="translate(0.000000,2090.000000) scale(0.100000,-0.100000)"
fill="#000000" stroke="none">
<path d="M11350 6413 c-72 -9 -169 -44 -185 -66 -8 -12 -15 -43 -15 -71 0 -65
-33 -121 -107 -181 -153 -125 -280 -136 -386 -34 -28 27 -54 49 -58 49 -4 0
-39 -34 -78 -76 -82 -88 -125 -170 -149 -283 l-16 -78 27 -55 c18 -37 56 -83
115 -140 71 -68 107 -94 198 -141 61 -31 138 -76 170 -101 200 -151 429 -448
490 -636 12 -36 33 -90 47 -120 37 -80 47 -126 47 -208 0 -40 4 -81 9 -91 10
-19 200 -186 205 -180 1 2 10 24 19 49 9 25 47 83 84 129 104 128 101 118 65
176 -43 71 -70 144 -97 265 -43 192 -59 217 -286 440 -187 185 -219 237 -227
370 -6 102 0 122 53 179 l44 47 -24 47 c-35 64 -33 102 7 139 61 57 323 168
397 168 24 0 27 5 38 58 7 31 21 98 32 147 11 50 20 107 21 127 0 62 -30 72
-235 74 -93 1 -186 0 -205 -3z"/>
</g>
</svg>
