<?xml version="1.0" standalone="no"?>
<!DOCTYPE svg PUBLIC "-//W3C//DTD SVG 20010904//EN"
 "http://www.w3.org/TR/2001/REC-SVG-20010904/DTD/svg10.dtd">
<svg version="1.0" xmlns="http://www.w3.org/2000/svg"
 width="2400.000000pt" height="2090.000000pt" viewBox="0 0 2400.000000 2090.000000"
 preserveAspectRatio="xMidYMid meet">
<metadata>
Created by potrace 1.16, written by Peter Selinger 2001-2019
</metadata>
<g transform="translate(0.000000,2090.000000) scale(0.100000,-0.100000)"
fill="#000000" stroke="none">
<path d="M12765 7911 c-76 -35 -161 -136 -241 -286 -26 -49 -70 -123 -97 -164
-27 -41 -56 -97 -63 -125 -20 -73 -18 -272 3 -381 16 -84 23 -99 99 -215 45
-69 88 -139 97 -157 21 -41 60 -71 102 -79 29 -5 43 1 97 38 81 56 109 68 164
68 25 0 52 6 60 13 62 49 140 127 217 217 111 130 129 144 246 206 115 60 163
112 228 244 56 116 87 162 166 246 83 89 100 97 196 88 76 -6 78 -6 84 17 4
13 7 38 7 54 -1 28 -9 35 -110 93 -169 96 -275 116 -465 86 l-115 -18 -73 37
c-62 32 -81 37 -139 37 -37 0 -102 -8 -144 -17 -71 -16 -80 -16 -139 0 -81 22
-130 21 -180 -2z"/>
</g>
</svg>
