<?xml version="1.0" standalone="no"?>
<!DOCTYPE svg PUBLIC "-//W3C//DTD SVG 20010904//EN"
 "http://www.w3.org/TR/2001/REC-SVG-20010904/DTD/svg10.dtd">
<svg version="1.0" xmlns="http://www.w3.org/2000/svg"
 width="2400.000000pt" height="2090.000000pt" viewBox="0 0 2400.000000 2090.000000"
 preserveAspectRatio="xMidYMid meet">
<metadata>
Created by potrace 1.16, written by Peter Selinger 2001-2019
</metadata>
<g transform="translate(0.000000,2090.000000) scale(0.100000,-0.100000)"
fill="#000000" stroke="none">
<path d="M6573 11240 c-82 -43 -213 -134 -213 -149 0 -9 48 -21 84 -21 33 0
56 -48 58 -121 2 -78 -6 -106 -40 -142 -30 -31 -51 -38 -222 -68 -175 -30
-220 -56 -220 -127 0 -42 38 -71 140 -106 82 -28 89 -33 200 -142 68 -66 127
-115 144 -120 15 -3 66 -4 112 0 84 7 84 7 84 -17 0 -13 -12 -34 -27 -48 -85
-78 -165 -87 -330 -40 -61 17 -119 31 -130 31 -10 0 -29 -13 -41 -30 -38 -50
-112 -75 -112 -36 0 6 -4 17 -9 25 -13 21 -39 -2 -61 -55 -20 -46 -69 -89
-182 -158 -101 -62 -170 -88 -212 -80 -28 5 -37 1 -59 -26 -15 -17 -27 -36
-27 -41 0 -5 21 -23 47 -39 63 -40 102 -39 198 6 72 35 81 36 148 31 81 -6
175 -42 219 -84 31 -30 36 -27 111 54 90 96 146 103 304 37 123 -51 135 -54
348 -64 105 -5 205 -13 223 -19 17 -5 32 -7 32 -5 0 3 -17 31 -38 62 -99 148
-142 364 -96 482 44 114 188 250 266 250 43 0 46 8 40 135 l-5 120 -156 59
c-211 80 -259 102 -282 128 -44 52 -53 81 -58 198 l-6 114 -34 23 c-52 35
-104 31 -198 -17z"/>
</g>
</svg>
