<?xml version="1.0" standalone="no"?>
<!DOCTYPE svg PUBLIC "-//W3C//DTD SVG 20010904//EN"
 "http://www.w3.org/TR/2001/REC-SVG-20010904/DTD/svg10.dtd">
<svg version="1.0" xmlns="http://www.w3.org/2000/svg"
 width="2400.000000pt" height="2090.000000pt" viewBox="0 0 2400.000000 2090.000000"
 preserveAspectRatio="xMidYMid meet">
<metadata>
Created by potrace 1.16, written by Peter Selinger 2001-2019
</metadata>
<g transform="translate(0.000000,2090.000000) scale(0.100000,-0.100000)"
fill="#000000" stroke="none">
<path d="M15070 10294 c-39 -58 -137 -134 -225 -174 -86 -40 -119 -49 -375
-104 -490 -105 -571 -137 -711 -276 -73 -73 -94 -101 -132 -180 -46 -96 -67
-176 -67 -259 0 -73 49 -239 105 -356 58 -122 103 -186 242 -352 103 -123 95
-118 268 -159 95 -22 205 -15 279 19 80 37 201 131 246 193 69 93 133 94 290
4 94 -54 220 -100 273 -100 45 0 135 32 212 75 104 58 179 56 264 -6 24 -17
44 -29 46 -27 13 12 65 152 74 198 21 103 18 265 -6 365 -46 190 -64 251 -103
335 -23 51 -50 134 -65 200 -14 62 -36 132 -49 155 -42 70 -116 131 -279 226
-56 33 -137 110 -222 212 l-40 48 -25 -37z"/>
</g>
</svg>
