<?xml version="1.0" standalone="no"?>
<!DOCTYPE svg PUBLIC "-//W3C//DTD SVG 20010904//EN"
 "http://www.w3.org/TR/2001/REC-SVG-20010904/DTD/svg10.dtd">
<svg version="1.0" xmlns="http://www.w3.org/2000/svg"
 width="2400.000000pt" height="2090.000000pt" viewBox="0 0 2400.000000 2090.000000"
 preserveAspectRatio="xMidYMid meet">
<metadata>
Created by potrace 1.16, written by Peter Selinger 2001-2019
</metadata>
<g transform="translate(0.000000,2090.000000) scale(0.100000,-0.100000)"
fill="#000000" stroke="none">
<path d="M8005 3494 c-89 -9 -680 -77 -680 -78 -7 -24 -85 -122 -108 -136 -58
-36 -93 -27 -212 55 -35 24 -72 46 -83 49 -12 4 -53 -9 -108 -35 -264 -122
-304 -129 -694 -139 -258 -6 -325 -10 -370 -24 -80 -26 -114 -50 -151 -109
-36 -58 -90 -126 -159 -203 -25 -28 -58 -67 -75 -86 -30 -34 -31 -35 -150 -47
-66 -7 -148 -20 -183 -28 -79 -20 -164 -74 -221 -141 -53 -64 -120 -106 -159
-100 -15 3 -62 16 -104 29 -71 21 -83 22 -136 11 -91 -19 -155 -2 -392 104
-72 32 -98 38 -172 42 -75 4 -100 0 -192 -27 -126 -37 -149 -38 -237 -9 l-67
21 -54 -28 c-29 -15 -72 -37 -95 -49 l-43 -21 0 -62 c0 -52 3 -64 20 -73 26
-14 60 -83 100 -205 62 -188 106 -257 194 -302 129 -66 428 -105 531 -69 27 9
61 16 76 16 25 0 30 -5 39 -42 7 -24 18 -53 26 -65 34 -54 220 -118 428 -149
169 -25 230 -9 351 91 93 77 142 99 198 88 24 -5 62 -5 89 1 43 9 50 7 90 -20
82 -55 83 -55 303 36 271 113 365 131 665 132 180 0 213 -3 270 -21 59 -19 90
-21 325 -21 399 0 599 -23 720 -80 33 -16 103 -64 155 -108 52 -43 102 -81
110 -84 8 -3 32 3 52 13 62 32 139 57 223 73 44 9 102 24 128 32 63 21 100 15
245 -41 130 -50 157 -54 172 -26 33 62 181 48 355 -32 88 -40 93 -42 195 -41
111 0 258 26 265 47 9 25 54 347 60 432 9 123 -8 236 -55 362 -29 75 -49 112
-73 136 -61 57 -71 141 -36 297 18 82 20 113 14 225 -3 72 -9 133 -13 137 -12
12 -564 189 -667 213 -55 13 -147 31 -205 40 -102 15 -423 27 -505 19z"/>
</g>
</svg>
